<?xml version="1.0" encoding="UTF-8" standalone="no"?>
<!DOCTYPE svg PUBLIC "-//W3C//DTD SVG 1.1//EN" "http://www.w3.org/Graphics/SVG/1.1/DTD/svg11.dtd">
<svg width="100%" height="100%" viewBox="0 0 1860 1208" version="1.1" xmlns="http://www.w3.org/2000/svg" xmlns:xlink="http://www.w3.org/1999/xlink" xml:space="preserve" xmlns:serif="http://www.serif.com/" style="fill-rule:evenodd;clip-rule:evenodd;stroke-linejoin:round;stroke-miterlimit:2;">
    <g id="Page-1" serif:id="Page 1" transform="matrix(2.324167,0,0,1.509167,0,0)">
        <rect x="0" y="0" width="800" height="800" style="fill:none;"/>
        <clipPath id="_clip1">
            <rect x="0" y="0" width="800" height="800"/>
        </clipPath>
        <g clip-path="url(#_clip1)">
            <g id="Layer-1" serif:id="Layer 1" transform="matrix(1.792757,0,0,2.760906,-303.76479,-695.085588)">
                <g transform="matrix(1.000263,0,0,1.000533,-7.107267,-6.895566)">
                    <g transform="matrix(1,0,0,1,0,91.568)">
                        <path d="M362.933,406.678L341.365,406.678L341.365,301.753L362.933,301.753L362.933,406.678ZM415.76,453.785C419.159,446.404 418.107,435.266 416.994,423.474C415.607,408.789 414.058,392.312 420.732,378.073L386.496,378.073L386.496,261.202L377.227,251.914L283.947,251.914L283.947,413.29L327.506,456.518L415.173,456.518C415.173,455.588 415.358,454.655 415.76,453.785" style="fill:rgb(191,85,44);fill-rule:nonzero;"/>
                    </g>
                    <g transform="matrix(1,0,0,1,468.4395,282.0977)">
                        <path d="M0,157.29C15.855,156.292 31.722,160.716 41.416,168.831C43.562,170.627 45.646,172.269 47.647,173.771L47.647,131.107L-17.931,131.107L-17.931,-23.657L-75.349,-23.657L-75.349,180.947L-43.91,180.947C-34.289,166.84 -18.824,158.474 0,157.29" style="fill:rgb(224,163,63);fill-rule:nonzero;"/>
                    </g>
                    <g transform="matrix(1,0,0,1,543.249,345.9102)">
                        <path d="M0,152.336L0,-8.321L79.276,-8.321L79.276,-43.879L0,-43.879L0,-87.469L-57.417,-87.469L-57.417,60.7L-20.566,60.7L-20.566,114.625C-17.091,116.937 -14.054,118.733 -11.66,120.051C-4.514,123.984 -1.199,132.492 -3.779,140.28C-9.763,158.342 -22.229,161.171 -31.084,161.728C-33.469,161.878 -35.819,161.88 -38.093,161.882C-38.857,161.883 -39.601,161.886 -40.335,161.892L-1.595,202.176L79.276,202.176L79.276,13.538L21.568,13.538L21.568,152.336L0,152.336Z" style="fill:rgb(83,153,148);fill-rule:nonzero;"/>
                    </g>
                    <g transform="matrix(1,0,0,1,505.6104,336.0916)">
                        <path d="M0,134.343C-0.194,131.24 -2.868,128.883 -5.972,129.078C-9.075,129.274 -11.433,131.947 -11.237,135.05C-11.042,138.154 -8.368,140.511 -5.265,140.316C-2.162,140.12 0.195,137.447 0,134.343M27.657,148.044C23.12,161.739 14.914,164.474 6.145,165.026C1.806,165.299 -2.671,165.037 -6.91,165.304C-9.552,165.47 -12.103,165.842 -14.469,166.676C-29.751,172.063 -27.118,188.727 -19.041,201.237C-16.488,205.192 -14.942,208.846 -14.022,211.994L-20.436,211.994C-21.235,209.77 -22.421,207.261 -24.171,204.549C-30.957,194.038 -33.284,182.715 -30.395,174.26C-28.248,167.979 -23.442,163.364 -16.498,160.917C-13.842,159.98 -10.916,159.438 -7.294,159.209C-4.997,159.066 -2.692,159.063 -0.464,159.061C1.712,159.059 3.768,159.057 5.761,158.932C11.13,158.594 15.968,157.669 19.548,151.462C20.38,150.019 20.081,148.201 18.85,147.078C17.656,145.99 15.822,146.062 14.844,147.003C10.97,150.727 -1.335,150.585 -20.027,148.447C-39.607,146.207 -54.424,170.05 -45.618,194.143C-42.603,202.395 -41.625,208.077 -41.639,211.994L-83.917,211.994C-74.715,192.018 -91.602,157.054 -77.224,133.039C-67.909,117.482 -52.137,110.783 -36.76,109.817C-22.187,108.901 -7.972,113.131 0.052,119.847C9.211,127.514 17.377,132.593 22.828,135.593C27.237,138.02 29.24,143.266 27.657,148.044M-250.182,168.405L-250.182,85.513L-271.75,85.513L-271.75,211.994L-329.168,211.994L-329.168,-11.143L-271.75,-77.651L-271.75,49.955L-250.182,49.955L-250.182,-77.651L-192.475,-77.651L-192.475,0.795L-228.259,0.795L-228.259,168.405L-250.182,168.405Z" style="fill:rgb(26,70,114);fill-rule:nonzero;"/>
                    </g>
                    <g transform="matrix(1,0,0,1,362.9326,399.3972)">
                        <path d="M0,88.261L0,91.173C7.433,104.756 18.153,114.515 32.403,120.621C39.129,123.503 46.653,125.563 54.975,126.836C54.949,126.383 54.921,125.925 54.892,125.467C28.585,121.374 10.56,109.168 0,88.261M31.281,123.081C38.316,126.096 46.327,128.273 55.091,129.575C55.077,129.121 55.063,128.667 55.043,128.207C46.49,126.917 38.674,124.786 31.812,121.845C18,115.926 7.517,106.738 0,93.917L0,96.514C7.567,108.591 17.888,117.342 31.281,123.081M0,80.49L0,83.523C7.758,98.524 19.087,109.074 34.461,115.663C40.5,118.251 47.263,120.218 54.598,121.55C54.559,121.088 54.52,120.626 54.479,120.16C47.382,118.848 40.839,116.933 34.991,114.427C19.109,107.621 7.629,96.492 0,80.49M7.025,60.552C4.845,55.311 2.502,50.406 0,45.839L0,48.688C2.04,52.577 3.968,56.704 5.784,61.069C13.162,78.804 25.082,91.141 41.942,98.366C45.417,99.856 49.105,101.123 53.004,102.181C52.981,101.711 52.961,101.24 52.942,100.77C30.783,94.636 15.695,81.391 7.025,60.552M41.35,99.59C24.155,92.222 12.115,79.79 4.542,61.585C3.084,58.083 1.567,54.784 0,51.659L0,54.72C1.129,57.08 2.231,59.534 3.3,62.102C11.014,80.646 23.288,93.313 40.82,100.826C44.656,102.471 48.786,103.862 53.164,105.004C53.134,104.535 53.105,104.066 53.078,103.596C48.922,102.491 45.001,101.156 41.35,99.59M-21.568,73.577C-31.541,58.699 -43.609,48.369 -57.632,42.764C-64.336,40.082 -71.466,38.477 -78.986,37.948L-78.986,39.3C-71.639,39.825 -64.675,41.396 -58.132,44.013C-43.842,49.721 -31.603,60.459 -21.568,76.03L-21.568,73.577ZM0.667,75.389C0.447,74.862 0.223,74.344 0,73.823L0,77.25C7.416,94.265 19.153,106.162 35.583,113.203C41.269,115.64 47.528,117.486 54.353,118.771C54.311,118.31 54.269,117.849 54.225,117.386C27.853,112.32 10.298,98.541 0.667,75.389M38.171,107.009C20.976,99.64 8.936,87.208 1.362,69.004C0.914,67.926 0.459,66.871 0,65.83L0,69.24C0.04,69.334 0.081,69.425 0.12,69.521C7.835,88.065 20.108,100.732 37.641,108.245C42.585,110.364 48.017,112.063 53.846,113.344C53.803,112.877 53.76,112.409 53.717,111.941C48.129,110.688 42.92,109.044 38.171,107.009M3.846,67.97C2.616,65.015 1.332,62.173 0,59.432L0,62.569C0.891,64.492 1.761,66.461 2.604,68.488C9.982,86.223 21.902,98.56 38.763,105.784C43.337,107.745 48.281,109.325 53.592,110.539C53.551,110.07 53.511,109.599 53.472,109.126C29.28,103.478 12.99,89.95 3.846,67.97M-18.411,119.899C-30.13,91.727 -46.532,73.266 -67.171,65.019C-70.974,63.497 -74.916,62.327 -78.986,61.499L-78.986,62.871C-75.088,63.68 -71.314,64.811 -67.67,66.268C-47.386,74.368 -31.228,92.59 -19.653,120.415C-14.753,132.194 -7.847,141.588 1.176,148.689L3.425,148.689C-6.118,141.606 -13.357,132.045 -18.411,119.899M-76.709,87.274C-77.462,86.973 -78.222,86.69 -78.986,86.416L-78.986,87.844C-78.391,88.063 -77.797,88.287 -77.209,88.523C-56.926,96.638 -40.764,114.852 -29.191,142.67C-28.326,144.751 -27.395,146.755 -26.403,148.689L-24.887,148.689C-25.984,146.599 -27.005,144.422 -27.949,142.154C-39.666,113.989 -56.063,95.522 -76.709,87.274M23.563,34.01L23.563,31.189C22.448,29.05 21.407,26.82 20.439,24.494C-4.686,-35.904 -46.931,-38.826 -78.986,-29.888L-78.986,-28.49C-47.416,-37.397 -5.643,-34.702 19.197,25.011C20.517,28.183 21.973,31.178 23.563,34.01M-21.568,78.576C-37.973,52.154 -58.76,42.295 -78.986,40.749L-78.986,42.131C-58.694,43.74 -37.837,53.877 -21.568,81.171L-21.568,78.576ZM-78.986,-31.283C-59.418,-36.692 -41.719,-36.323 -26.336,-30.17C-6.05,-22.076 10.106,-3.848 21.681,23.978C22.278,25.411 22.907,26.806 23.563,28.169L23.563,24.937C23.348,24.447 23.131,23.959 22.923,23.46C11.204,-4.711 -5.2,-23.17 -25.837,-31.419C-41.405,-37.646 -59.27,-38.065 -78.986,-32.679L-78.986,-31.283ZM-21.568,86.007C-32.117,68.411 -45.262,56.394 -60.812,50.182C-66.563,47.881 -72.63,46.375 -78.986,45.659L-78.986,47.013C-72.803,47.722 -66.904,49.195 -61.312,51.431C-45.477,57.764 -32.156,70.253 -21.568,88.661L-21.568,86.007ZM-15.231,112.48C-26.95,84.311 -43.347,65.845 -63.992,57.601C-68.776,55.687 -73.78,54.324 -78.986,53.508L-78.986,54.868C-73.953,55.674 -69.117,56.999 -64.491,58.85C-44.201,66.967 -28.047,85.174 -16.473,112.997C-9.615,129.483 1.17,141.301 16.198,148.689L19.396,148.689C3.3,141.546 -8.124,129.566 -15.231,112.48M-14.536,106.095C-15.583,103.577 -16.663,101.17 -17.768,98.849L-19.257,98.849C-18.065,101.324 -16.903,103.907 -15.777,106.612C-8.063,125.156 4.21,137.823 21.743,145.336C24.701,146.604 27.838,147.718 31.123,148.689L36.331,148.689C31.305,147.483 26.598,145.953 22.273,144.1C5.078,136.731 -6.962,124.3 -14.536,106.095M-78.986,48.482L-78.986,49.87C-58.358,52.429 -37.428,64.236 -21.568,94.272L-21.568,91.433C-37.587,62.407 -58.441,50.953 -78.986,48.482M44,93.408C46.801,94.609 49.757,95.675 52.853,96.61C52.851,96.141 52.852,95.673 52.856,95.204C49.949,94.313 47.168,93.303 44.529,92.172C27.334,84.803 15.294,72.371 7.721,54.167C5.298,48.344 2.717,43.054 0,38.258L0,41.051C2.265,45.226 4.43,49.758 6.479,54.684C14.194,73.228 26.467,85.895 44,93.408M-8.35,98.849L-9.819,98.849C-2.42,116.213 9.404,128.327 26.044,135.458C33.19,138.521 41.228,140.666 50.176,141.912C51.459,142.091 52.756,142.245 54.06,142.386C54.17,141.953 54.274,141.515 54.366,141.066C53.021,140.922 51.684,140.765 50.361,140.58C21.298,136.532 2.082,122.87 -8.35,98.849M23.563,-26.87L23.563,-29.35C15.979,-40.91 7.159,-49.787 -2.835,-55.915L-5.479,-55.915C5.646,-49.591 15.359,-39.88 23.563,-26.87M23.563,-21.622L23.563,-24.27C14.034,-39.968 2.986,-49.97 -8.596,-55.915L-11.806,-55.915C0.99,-50.048 13.229,-39.368 23.563,-21.622M28.632,129.264C13.943,122.969 3.019,112.976 -4.575,98.849L-6.101,98.849C1.65,113.589 12.897,123.984 28.102,130.5C35.425,133.638 43.797,135.879 52.985,137.159C53.62,137.247 54.26,137.327 54.899,137.407C54.942,136.963 54.983,136.519 55.014,136.065C54.397,135.989 53.781,135.912 53.17,135.827C44.101,134.563 35.845,132.355 28.632,129.264M-78.986,95.07L-78.986,96.527C-59.693,104.758 -44.224,122.298 -32.967,148.689L-31.505,148.689C-43.023,121.433 -58.99,103.399 -78.986,95.07M23.563,-46.627L22.291,-47.902C22.717,-47.346 23.141,-46.779 23.563,-46.204L23.563,-46.627ZM-78.986,98.149L-78.986,99.681C-63.032,106.862 -47.919,121.468 -36.254,147.867L-35.427,148.689L-34.431,148.689C-46.484,120.711 -62.296,105.467 -78.986,98.149M-78.986,103.907L-78.986,105.407C-65.306,112.126 -53.646,123.721 -44.155,140.027L-40.707,143.449C-50.854,124.498 -63.682,111.242 -78.986,103.907M23.563,41.528L23.563,38.806C22.177,36.295 20.9,33.658 19.744,30.879C14.196,17.544 7.598,6.388 0,-2.542L0,-0.437C7.077,8.175 13.261,18.798 18.501,31.396C20,34.996 21.687,38.369 23.563,41.528M23.563,-34.198L23.563,-36.636C18.097,-44.666 12.198,-51.004 6.031,-55.915L3.763,-55.915C10.772,-50.625 17.455,-43.523 23.563,-34.198M38.08,70.243L35.778,70.243C40.164,73.511 45.016,76.282 50.358,78.572C51.683,79.14 53.054,79.667 54.445,80.176C54.544,79.736 54.649,79.297 54.76,78.86C53.442,78.375 52.145,77.873 50.889,77.335C46.247,75.346 41.984,72.985 38.08,70.243M53.494,85.534C53.555,85.077 53.62,84.622 53.689,84.167C44.48,80.924 36.627,76.297 30.077,70.243L28.092,70.243C33.805,75.777 40.526,80.198 48.301,83.531C49.981,84.25 51.716,84.915 53.494,85.534M25.452,136.682C8.312,129.336 -3.705,116.959 -11.282,98.849L-12.745,98.849C-12.696,98.965 -12.646,99.077 -12.598,99.194C-4.883,117.738 7.39,130.405 24.922,137.918C32.245,141.057 40.617,143.297 49.806,144.577C50.935,144.735 52.074,144.872 53.219,145C53.386,144.577 53.539,144.143 53.682,143.698C52.443,143.562 51.211,143.415 49.991,143.245C40.921,141.982 32.666,139.773 25.452,136.682M10.205,53.134C7.125,45.731 3.719,39.005 0,32.952L0,35.563C3.238,41.054 6.23,47.081 8.963,53.651C16.341,71.386 28.261,83.723 45.122,90.949C47.598,92.009 50.188,92.953 52.88,93.795C52.891,93.327 52.906,92.862 52.925,92.395C32.506,85.898 18.45,72.952 10.205,53.134M47.179,85.99C49.109,86.818 51.118,87.578 53.19,88.28C53.232,87.824 53.277,87.366 53.328,86.911C51.392,86.248 49.518,85.529 47.709,84.754C39.31,81.154 32.143,76.342 26.123,70.243L24.246,70.243C30.568,76.914 38.179,82.133 47.179,85.99M40.532,70.243C43.92,72.477 47.565,74.434 51.48,76.112C52.663,76.618 53.879,77.09 55.109,77.547C55.23,77.115 55.356,76.687 55.489,76.258C51.021,74.592 46.884,72.587 43.065,70.243L40.532,70.243ZM-12.052,105.062C-12.937,102.933 -13.853,100.866 -14.792,98.849L-16.276,98.849C-15.251,101.028 -14.255,103.267 -13.293,105.578C-5.916,123.314 6.004,135.651 22.865,142.876C28.918,145.47 35.618,147.399 42.962,148.689L52.24,148.689C52.24,148.658 52.244,148.628 52.244,148.598C50.54,148.43 48.852,148.232 47.183,147.998C17.632,143.882 -1.745,129.837 -12.052,105.062M-78.986,89.434L-78.986,90.933C-61.221,97.813 -44.271,113.426 -31.675,143.703C-30.963,145.415 -30.211,147.076 -29.421,148.689L-27.916,148.689C-28.803,146.915 -29.644,145.084 -30.433,143.187C-43.335,112.172 -60.752,96.314 -78.986,89.434M51.504,70.243C52.175,70.554 52.851,70.859 53.538,71.154C54.612,71.614 55.716,72.049 56.835,72.471C57.003,72.055 57.177,71.642 57.357,71.23C56.516,70.912 55.688,70.582 54.872,70.243L51.504,70.243ZM-1.491,98.849L-3.036,98.849C4.391,112.297 15.064,121.972 29.224,128.039C36.37,131.102 44.407,133.247 53.355,134.494C53.928,134.574 54.506,134.645 55.082,134.717C55.101,134.272 55.111,133.82 55.119,133.365C54.593,133.299 54.064,133.235 53.541,133.162C27.613,129.55 9.518,118.291 -1.491,98.849M-78.986,80.911L-78.986,82.378C-60.074,88.588 -41.841,104.205 -28.496,136.285C-26.634,140.759 -24.505,144.888 -22.103,148.689L-20.503,148.689C-23.056,144.755 -25.304,140.454 -27.254,135.769C-40.904,102.955 -59.608,87.111 -78.986,80.911M-73.53,79.856C-75.318,79.14 -77.138,78.506 -78.986,77.945L-78.986,79.35C-77.309,79.871 -75.655,80.454 -74.029,81.105C-53.754,89.2 -37.588,107.424 -26.012,135.251C-23.979,140.14 -21.598,144.615 -18.867,148.689L-17.223,148.689C-20.128,144.486 -22.645,139.842 -24.77,134.735C-36.491,106.56 -52.9,88.099 -73.53,79.856M0,28.116C3.433,33.73 6.669,40.08 9.659,47.266C13.271,55.947 17.881,63.34 23.563,69.52L23.563,67.498C18.437,61.66 14.235,54.765 10.901,46.749C7.551,38.696 3.894,31.673 0,25.556L0,28.116ZM-78.986,-34.969C-78.724,-35.049 -78.464,-35.127 -78.2,-35.208C-46.377,-44.918 -3.096,-43.641 22.377,17.592C22.76,18.513 23.157,19.415 23.563,20.307L23.563,16.945C-2.305,-45.088 -46.261,-46.36 -78.593,-36.494C-78.725,-36.454 -78.854,-36.415 -78.986,-36.375L-78.986,-34.969ZM0,23.036C4.483,29.825 8.536,37.562 12.143,46.233C15.173,53.518 18.972,59.89 23.563,65.373L23.563,63.217C19.517,58.129 16.126,52.306 13.385,45.715C9.448,36.252 4.979,27.89 0,20.637L0,23.036ZM-78.986,72.564L-78.986,74.005C-58.949,79.472 -39.408,94.992 -25.316,128.866C-22.167,136.438 -18.256,143.028 -13.54,148.689L-11.767,148.689C-16.731,142.938 -20.817,136.18 -24.074,128.35C-38.47,93.744 -58.486,78.013 -78.986,72.564M-17.715,113.514C-33.597,75.335 -56.32,60.126 -78.986,56.358L-78.986,57.759C-56.779,61.558 -34.537,76.578 -18.957,114.031C-12.493,129.568 -2.827,140.977 10.45,148.689L13.211,148.689C-0.884,141.126 -11.037,129.566 -17.715,113.514M-20.895,120.932C-36.034,84.539 -57.39,69.019 -78.986,64.382L-78.986,65.801C-57.85,70.463 -36.973,85.784 -22.137,121.449C-17.496,132.604 -11.203,141.629 -3.11,148.689L-1.029,148.689C-9.547,141.618 -16.112,132.427 -20.895,120.932M-70.351,72.437C-73.155,71.316 -76.035,70.387 -78.986,69.642L-78.986,71.029C-76.208,71.745 -73.494,72.629 -70.85,73.687C-50.56,81.788 -34.408,100.007 -22.832,127.833C-19.48,135.892 -15.187,142.832 -9.921,148.689L-8.075,148.689C-13.631,142.755 -18.125,135.645 -21.59,127.317C-33.311,99.144 -49.715,80.684 -70.351,72.437M-21.568,66.312C-38.322,42.233 -59.057,33.846 -78.986,33.157L-78.986,34.531C-59.003,35.262 -38.207,43.889 -21.568,68.731L-21.568,66.312ZM23.563,-14.098L23.563,-16.801C12.911,-34.965 -0.442,-47.341 -16.298,-53.674C-18.444,-54.532 -20.634,-55.278 -22.866,-55.915L-28.583,-55.915C-24.52,-55.101 -20.587,-53.941 -16.798,-52.425C-0.646,-45.968 12.879,-33.104 23.563,-14.098M-78.986,-37.781L-78.985,-37.781C-58.152,-44.138 -39.369,-44.073 -23.157,-37.588C-3.614,-29.772 12.09,-12.586 23.563,13.532L23.563,10.258C12.058,-14.665 -3.462,-31.174 -22.658,-38.837C-39.058,-45.398 -58.008,-45.512 -78.986,-39.184L-78.986,-37.781ZM23.563,-39.048L23.563,-41.364C19.49,-46.93 15.092,-51.781 10.379,-55.915L8.311,-55.915C13.823,-51.274 18.912,-45.647 23.563,-39.048M-75.421,108.998L-70.534,113.849C-64.665,118.092 -59.012,123.573 -53.721,130.534L-48.251,135.962C-56.467,123.312 -65.722,114.652 -75.421,108.998M-78.986,-55.858L-78.986,-54.465C-77.297,-54.918 -75.58,-55.403 -73.828,-55.915L-78.776,-55.915C-78.846,-55.896 -78.917,-55.876 -78.986,-55.858M-78.986,-41.433C-77.684,-41.819 -76.364,-42.216 -75.021,-42.626C-44.012,-52.088 -2.128,-51.108 23.563,5.599L23.563,2.405C-2.613,-52.581 -44.37,-53.385 -75.413,-43.912C-76.622,-43.544 -77.812,-43.184 -78.986,-42.835L-78.986,-41.433ZM-78.986,-49.325L-78.986,-47.927C-76.667,-48.587 -74.291,-49.297 -71.841,-50.045C-42.082,-59.125 -2.303,-58.592 23.563,-8.407L23.563,-11.304C-2.722,-60.056 -42.42,-60.428 -72.233,-51.331C-74.546,-50.625 -76.793,-49.952 -78.986,-49.325M-78.986,-50.725C-76.918,-51.32 -74.802,-51.953 -72.626,-52.617C-67.969,-54.038 -63.417,-55.136 -58.971,-55.915L-65.607,-55.915C-68.049,-55.335 -70.519,-54.667 -73.019,-53.904C-75.059,-53.281 -77.043,-52.687 -78.986,-52.126L-78.986,-50.725ZM-19.478,-46.256C-35.981,-52.857 -55.064,-52.934 -76.198,-46.486C-77.139,-46.198 -78.066,-45.919 -78.986,-45.643L-78.986,-44.239C-77.939,-44.551 -76.88,-44.871 -75.805,-45.199C-54.972,-51.556 -36.189,-51.491 -19.978,-45.007C-2.185,-37.891 12.43,-23.005 23.563,-0.684L23.563,-3.642C12.433,-24.964 -2.006,-39.276 -19.478,-46.256M-21.568,32.405C-39.228,14.185 -59.859,9.588 -78.986,11.136L-78.986,12.499C-59.841,10.948 -39.155,15.657 -21.568,34.395L-21.568,32.405ZM-21.568,-1.674C-25.936,-4.725 -30.538,-7.229 -35.375,-9.164C-48.393,-14.371 -63.018,-15.516 -78.986,-12.603L-78.986,-11.235C-63.175,-14.156 -48.718,-13.052 -35.875,-7.915C-30.85,-5.906 -26.079,-3.274 -21.568,-0.033L-21.568,-1.674ZM-14.353,-6.076C-19.892,-10.537 -25.843,-14.047 -32.196,-16.582C-46.073,-22.134 -61.775,-23.07 -78.986,-19.394L-78.986,-18.018C-61.93,-21.708 -46.395,-20.813 -32.695,-15.333C-26.978,-13.047 -21.588,-9.957 -16.535,-6.076L-14.353,-6.076ZM-18.99,-6.076C-38.355,-20.025 -60.036,-20.735 -78.986,-16.629L-78.986,-15.248C-60.842,-19.222 -40.123,-18.726 -21.421,-6.076L-18.99,-6.076ZM-21.568,1.782C-40.013,-11.802 -60.616,-13.234 -78.986,-9.847L-78.986,-8.474C-60.625,-11.892 -39.971,-10.432 -21.568,3.512L-21.568,1.782ZM-21.568,18.129C-27.754,12.732 -34.481,8.569 -41.735,5.673C-53.004,1.164 -65.478,-0.299 -78.986,1.279L-78.986,2.633C-65.642,1.053 -53.334,2.482 -42.234,6.922C-34.78,9.899 -27.885,14.248 -21.568,19.933L-21.568,18.129ZM-21.568,8.092C-26.862,3.953 -32.526,0.665 -38.555,-1.746C-50.704,-6.605 -64.252,-7.925 -78.986,-5.713L-78.986,-4.352C-64.413,-6.57 -51.031,-5.287 -39.055,-0.497C-32.833,1.991 -27,5.435 -21.568,9.81L-21.568,8.092ZM-21.568,21.88C-39.498,5.317 -60.113,1.831 -78.986,4.032L-78.986,5.396C-60.103,3.181 -39.436,6.747 -21.568,23.769L-21.568,21.88ZM-7.047,-6.076C-29.478,-28.14 -56.441,-28.902 -78.986,-23.308L-78.986,-21.919C-57.123,-27.406 -30.978,-26.857 -9.027,-6.076L-7.047,-6.076ZM-21.568,11.682C-39.758,-3.341 -60.364,-5.774 -78.986,-2.962L-78.986,-1.594C-60.363,-4.43 -39.707,-1.945 -21.568,13.486L-21.568,11.682ZM0,3.982C5.837,11.571 11.241,20.946 16.018,32.429C18.172,37.608 20.683,42.326 23.563,46.604L23.563,44.134C21.194,40.391 19.095,36.323 17.26,31.912C12.141,19.608 6.309,9.697 0,1.777L0,3.982ZM-21.568,43.29C-38.945,23.281 -59.601,17.503 -78.986,18.356L-78.986,19.719C-59.572,18.877 -38.859,24.804 -21.568,45.4L-21.568,43.29ZM-21.568,50.213C-30.186,39.849 -40.11,32.39 -51.273,27.928C-59.84,24.501 -69.103,22.836 -78.986,22.926L-78.986,24.272C-69.273,24.183 -60.176,25.815 -51.772,29.177C-40.38,33.727 -30.283,41.477 -21.568,52.331L-21.568,50.213ZM-21.568,39.163C-29.421,30.672 -38.277,24.433 -48.094,20.509C-57.573,16.717 -67.905,15.082 -78.986,15.596L-78.986,16.944C-68.073,16.43 -57.908,18.032 -48.593,21.758C-38.555,25.768 -29.529,32.259 -21.568,41.16L-21.568,39.163ZM-21.568,54.576C-38.645,32.622 -59.335,25.586 -78.986,25.695L-78.986,27.062C-59.294,26.978 -38.545,34.206 -21.568,56.827L-21.568,54.576ZM-21.568,61.662C-30.893,49.178 -41.885,40.363 -54.453,35.346C-62.095,32.289 -70.291,30.634 -78.986,30.375L-78.986,31.722C-70.462,31.981 -62.433,33.603 -54.952,36.595C-42.14,41.714 -30.975,50.873 -21.568,63.939L-21.568,61.662ZM-5.037,-6.076L-3.17,-6.076C-10.854,-14.197 -19.482,-20.193 -29.017,-24.001C-43.743,-29.891 -60.526,-30.583 -78.986,-26.082L-78.986,-24.697C-60.677,-29.216 -44.061,-28.57 -29.516,-22.751C-20.534,-19.165 -12.362,-13.589 -5.037,-6.076M0,15.784C4.626,22.522 8.941,30.48 12.838,39.848C15.75,46.848 19.313,53.01 23.563,58.374L23.563,56.166C19.85,51.224 16.698,45.622 14.08,39.33C9.833,29.121 5.094,20.563 0,13.417L0,15.784ZM0,11.069C5.764,18.886 10.881,28.14 15.322,38.814C17.623,44.345 20.366,49.351 23.563,53.841L23.563,51.452C20.888,47.462 18.555,43.082 16.564,38.297C11.805,26.858 6.273,17.017 0,8.813L0,11.069ZM-21.568,30.372C-28.729,23.185 -36.688,17.823 -45.414,14.34C-55.627,10.254 -66.862,8.72 -78.986,9.731L-78.986,8.38C-66.696,7.369 -55.294,8.939 -44.915,13.091C-36.4,16.493 -28.609,21.639 -21.568,28.483L-21.568,30.372Z" style="fill:rgb(229,105,62);fill-rule:nonzero;"/>
                    </g>
                    <g opacity="0.33">
                        <g transform="matrix(1,0,0,1,512.2363,499.886)">
                            <path d="M0,1.197C2.359,1.026 4.672,0.683 6.88,0C4.555,0.32 2.259,0.723 0,1.197" style="fill:rgb(28,28,28);fill-rule:nonzero;"/>
                        </g>
                    </g>
                    <g transform="matrix(1,0,0,1,450.5088,308.313)">
                        <path d="M0,102.189L0,100.696C-21.683,91.443 -41.136,93.977 -57.418,101.439L-57.418,102.939C-41.196,95.38 -21.733,92.763 0,102.189M0,99.161L0,97.692C-9.801,93.627 -19.634,91.69 -29.447,91.916C-38.847,92.126 -48.194,94.299 -57.418,98.403L-57.418,99.881C-48.178,95.691 -38.819,93.47 -29.417,93.26C-19.624,93.043 -9.801,95.022 0,99.161M8.524,104.892L5.645,104.892C14.781,109.662 24.29,116.584 34.105,126.171C37.208,129.203 40.399,131.896 43.688,134.26C45.882,134.982 47.988,135.815 49.984,136.752C44.771,133.697 39.803,129.857 35.045,125.21C25.93,116.304 17.072,109.665 8.524,104.892M30.642,104.892L28.615,104.892C30.445,106.516 32.286,108.22 34.139,110.03C43.691,119.361 54.081,125.508 65.578,128.594L65.578,127.2C54.439,124.14 44.359,118.133 35.078,109.067C33.593,107.616 32.113,106.225 30.642,104.892M0,94.111L0,92.618C-21.683,83.371 -41.136,85.909 -57.418,93.376L-57.418,94.876C-41.196,87.313 -21.734,84.69 0,94.111M20.868,104.892L18.601,104.892C23.68,108.583 28.856,112.957 34.122,118.1C43.68,127.437 54.075,133.585 65.578,136.669L65.578,135.275C54.433,132.217 44.347,126.209 35.062,117.138C30.256,112.444 25.523,108.387 20.868,104.892M0,74.925L0,73.458C-9.786,69.406 -19.603,67.477 -29.397,67.703C-38.813,67.913 -48.178,70.094 -57.418,74.212L-57.418,75.691C-48.162,71.486 -38.787,69.258 -29.367,69.048C-19.595,68.825 -9.787,70.797 0,74.925M0,69.877L0,68.385C-21.685,59.153 -41.139,61.707 -57.418,69.186L-57.418,70.687C-41.199,63.111 -21.736,60.473 0,69.877M0,91.084L0,89.617C-9.797,85.556 -19.625,83.621 -29.431,83.845C-38.836,84.055 -48.188,86.231 -57.418,90.339L-57.418,91.818C-48.173,87.622 -38.809,85.4 -29.4,85.189C-19.615,84.97 -9.797,86.948 0,91.084M0,66.848L0,65.385C-9.781,61.338 -19.593,59.411 -29.381,59.632C-38.803,59.842 -48.173,62.025 -57.418,66.148L-57.418,67.628C-48.156,63.418 -38.776,61.188 -29.351,60.977C-19.587,60.753 -9.784,62.724 0,66.848M0,77.955L0,76.462C-21.685,67.226 -41.138,69.774 -57.418,77.249L-57.418,78.75C-41.198,71.178 -21.735,68.545 0,77.955M0,86.033L0,84.541C-21.684,75.298 -41.137,77.842 -57.418,85.313L-57.418,86.813C-41.197,79.246 -21.735,76.618 0,86.033M0,83.002L0,81.541C-9.792,77.485 -19.614,75.552 -29.414,75.774C-38.825,75.984 -48.184,78.162 -57.418,82.275L-57.418,83.754C-48.167,79.554 -38.798,77.329 -29.384,77.119C-19.605,76.896 -9.792,78.871 0,83.002M-29.53,132.27C-38.901,132.48 -48.221,134.642 -57.418,138.722L-57.418,140.198C-48.205,136.032 -38.874,133.825 -29.5,133.616C-21.672,133.437 -13.824,134.669 -5.983,137.283C-5.41,136.997 -4.828,136.721 -4.242,136.454C-12.665,133.481 -21.105,132.079 -29.53,132.27M-49.321,-49.872C-52.03,-48.992 -54.729,-47.949 -57.418,-46.74L-57.418,-45.259C-53.133,-47.222 -48.822,-48.761 -44.494,-49.872L-49.321,-49.872ZM0,-47.71C-1.97,-48.518 -3.94,-49.236 -5.911,-49.872L-10.746,-49.872C-7.163,-48.956 -3.58,-47.745 0,-46.248L0,-47.71ZM0,-35.135L0,-36.627C-21.693,-45.79 -41.148,-43.168 -57.418,-35.639L-57.418,-34.133C-41.21,-41.76 -21.746,-44.47 0,-35.135M0,-38.167L0,-39.632C-9.711,-43.619 -19.45,-45.513 -29.166,-45.29C-38.661,-45.078 -48.103,-42.862 -57.418,-38.677L-57.418,-37.195C-48.087,-41.469 -38.634,-43.733 -29.136,-43.946C-19.442,-44.167 -9.712,-42.229 0,-38.167M0,-22.012L0,-23.476C-9.72,-27.472 -19.471,-29.371 -29.199,-29.148C-38.683,-28.936 -48.113,-26.726 -57.418,-22.55L-57.418,-21.069C-48.098,-25.332 -38.655,-27.592 -29.169,-27.804C-19.458,-28.023 -9.718,-26.081 0,-22.012M0,-18.979L0,-20.472C-21.692,-29.645 -41.147,-27.034 -57.418,-19.512L-57.418,-18.007C-41.208,-25.626 -21.745,-28.325 0,-18.979M-29.514,124.2C-38.891,124.409 -48.216,126.574 -57.418,130.658L-57.418,132.134C-48.2,127.963 -38.863,125.754 -29.483,125.544C-18.279,125.294 -7.032,127.922 4.176,133.376C4.832,133.191 5.494,133.013 6.162,132.849C-5.696,126.83 -17.619,123.928 -29.514,124.2M-57.418,133.694L-57.418,135.191C-41.127,127.618 -21.571,125.039 0.267,134.623C0.898,134.397 1.537,134.182 2.182,133.976C-20.375,123.57 -40.588,125.998 -57.418,133.694M0,-30.09L0,-31.553C-9.713,-35.542 -19.457,-37.44 -29.183,-37.219C-38.672,-37.007 -48.108,-34.794 -57.418,-30.613L-57.418,-29.132C-48.092,-33.401 -38.645,-35.663 -29.152,-35.874C-19.45,-36.096 -9.714,-34.155 0,-30.09M0,61.799L0,60.307C-21.686,51.08 -41.14,53.64 -57.418,61.122L-57.418,62.624C-41.2,55.044 -21.737,52.4 0,61.799M0,-27.057L0,-28.55C-21.692,-37.718 -41.148,-35.102 -57.418,-27.576L-57.418,-26.07C-41.209,-33.693 -21.745,-36.397 0,-27.057M-57.418,109.502L-57.418,111.002C-33.769,99.988 -3.232,99.492 31.184,131.482C31.961,131.579 32.731,131.691 33.499,131.813C-1.776,98.224 -33.125,98.376 -57.418,109.502M-57.418,125.63L-57.418,127.128C-38.593,118.372 -15.408,116.281 10.621,131.926C11.308,131.808 11.998,131.698 12.695,131.6C-14.111,114.877 -38.014,116.752 -57.418,125.63M-57.418,117.566L-57.418,119.065C-36.121,109.153 -9.242,107.765 21.023,130.949C21.753,130.935 22.481,130.935 23.209,130.944C-7.873,106.437 -35.513,107.539 -57.418,117.566M-29.497,116.128C-38.879,116.338 -48.21,118.505 -57.418,122.594L-57.418,124.071C-48.194,119.895 -38.853,117.683 -29.467,117.473C-14.72,117.134 0.114,121.793 14.836,131.34C15.547,131.264 16.264,131.201 16.984,131.145C1.573,120.819 -13.992,115.776 -29.497,116.128M-29.464,99.987C-38.857,100.197 -48.199,102.368 -57.418,106.467L-57.418,107.944C-48.184,103.758 -38.831,101.542 -29.434,101.332C-7.626,100.832 14.353,111.232 35.882,132.235C36.731,132.4 37.573,132.58 38.406,132.776C37.904,132.31 37.404,131.839 36.908,131.355C15.083,110.034 -7.244,99.482 -29.464,99.987M0,-13.932L0,-15.397C-9.727,-19.397 -19.482,-21.3 -29.216,-21.078C-38.693,-20.866 -48.119,-18.658 -57.418,-14.487L-57.418,-13.005C-48.103,-17.265 -38.667,-19.521 -29.186,-19.733C-19.471,-19.951 -9.725,-18.005 0,-13.932M0,-10.901L0,-12.394C-21.691,-21.573 -41.146,-18.967 -57.418,-11.449L-57.418,-9.944C-41.207,-17.559 -21.744,-20.252 0,-10.901M0,-43.213L0,-44.705C-6.306,-47.367 -12.422,-49.033 -18.325,-49.872L-36.955,-49.872C-44.225,-48.835 -51.064,-46.644 -57.418,-43.702L-57.418,-42.196C-41.21,-49.828 -21.747,-52.543 0,-43.213M0,-5.854L0,-7.323C-9.729,-11.327 -19.491,-13.231 -29.232,-13.007C-38.704,-12.795 -48.124,-10.589 -57.418,-6.423L-57.418,-4.942C-48.108,-9.196 -38.678,-11.45 -29.202,-11.662C-19.48,-11.879 -9.729,-9.932 0,-5.854M25.282,104.892L23.103,104.892C27.417,108.235 31.719,111.992 36.002,116.175C44.943,124.911 54.759,130.786 65.578,133.835L65.578,132.414C55.11,129.392 45.603,123.674 36.941,115.213C33.07,111.431 29.183,107.996 25.282,104.892M13.885,104.892L11.291,104.892C19.564,109.804 27.807,116.257 35.985,124.247C44.931,132.986 54.752,138.863 65.578,141.912L65.578,140.489C55.104,137.469 45.591,131.75 36.925,123.285C29.298,115.834 21.609,109.702 13.885,104.892M-29.48,108.057C-38.868,108.267 -48.205,110.436 -57.418,114.531L-57.418,116.007C-48.188,111.827 -38.842,109.613 -29.45,109.402C-11.144,108.982 7.274,116.244 25.449,131.002C26.212,131.036 26.972,131.084 27.729,131.14C8.837,115.383 -10.363,107.624 -29.48,108.057M0,2.218L0,0.76C-9.736,-3.249 -19.503,-5.156 -29.249,-4.936C-38.716,-4.724 -48.13,-2.521 -57.418,1.64L-57.418,3.121C-48.113,-1.128 -38.688,-3.379 -29.219,-3.591C-19.495,-3.817 -9.737,-1.867 0,2.218M0,42.612L0,41.145C-9.763,37.113 -19.557,35.193 -29.332,35.419C-38.77,35.63 -48.156,37.82 -57.418,41.957L-57.418,43.438C-48.141,39.213 -38.743,36.975 -29.302,36.764C-19.55,36.541 -9.764,38.503 0,42.612M0,37.566L0,36.073C-21.687,26.862 -41.142,29.438 -57.418,36.932L-57.418,38.435C-41.202,30.843 -21.739,28.183 0,37.566M0,34.537L0,33.072C-9.757,29.046 -19.546,27.129 -29.315,27.348C-38.759,27.559 -48.151,29.751 -57.418,33.894L-57.418,35.375C-48.135,31.145 -38.732,28.904 -29.285,28.693C-19.538,28.474 -9.758,30.435 0,34.537M0,29.488L0,27.996C-21.688,18.79 -41.143,21.37 -57.418,28.869L-57.418,30.372C-41.203,22.776 -21.74,20.11 0,29.488M0,-2.823L0,-4.316C-21.69,-13.5 -41.146,-10.899 -57.418,-3.385L-57.418,-1.88C-41.206,-9.492 -21.743,-12.18 0,-2.823M0,50.688L0,49.227C-9.769,45.19 -19.569,43.269 -29.349,43.49C-38.781,43.701 -48.162,45.888 -57.418,50.021L-57.418,51.501C-48.146,47.281 -38.754,45.046 -29.318,44.835C-19.561,44.609 -9.77,46.574 0,50.688M0,45.644L0,44.151C-21.687,34.935 -41.141,37.505 -57.418,44.995L-57.418,46.498C-41.201,38.91 -21.738,36.255 0,45.644M0,21.41L0,19.918C-21.688,10.717 -41.144,13.303 -57.418,20.805L-57.418,22.309C-41.204,14.709 -21.741,12.038 0,21.41M0,10.299L0,8.835C-9.742,4.821 -19.515,2.912 -29.266,3.135C-38.727,3.347 -48.135,5.547 -57.418,9.703L-57.418,11.185C-48.119,6.94 -38.699,4.691 -29.235,4.48C-19.507,4.257 -9.743,6.209 0,10.299M0,5.254L0,3.762C-21.69,-5.428 -41.145,-2.832 -57.418,4.678L-57.418,6.182C-41.205,-1.425 -21.742,-4.107 0,5.254M0,26.459L0,24.998C-9.753,20.975 -19.537,19.059 -29.299,19.277C-38.748,19.488 -48.146,21.683 -57.418,25.83L-57.418,27.311C-48.13,23.077 -38.722,20.834 -29.269,20.622C-19.525,20.403 -9.751,22.361 0,26.459M0,58.767L0,57.306C-9.774,53.264 -19.58,51.339 -29.365,51.561C-38.792,51.772 -48.167,53.957 -57.418,58.085L-57.418,59.564C-48.151,55.35 -38.765,53.117 -29.334,52.906C-19.571,52.683 -9.774,54.649 0,58.767M0,53.722L0,52.229C-21.687,43.008 -41.14,45.572 -57.418,53.059L-57.418,54.561C-41.201,46.977 -21.738,44.328 0,53.722M0,18.381L0,16.912C-9.749,12.892 -19.528,10.98 -29.282,11.206C-38.737,11.418 -48.141,13.615 -57.418,17.767L-57.418,19.248C-48.124,15.008 -38.71,12.763 -29.252,12.551C-19.518,12.332 -9.749,14.287 0,18.381M0,13.332L0,11.84C-21.689,2.645 -41.144,5.235 -57.418,12.742L-57.418,14.246C-41.205,6.642 -21.742,3.965 0,13.332M-29.547,140.341C-38.912,140.55 -48.227,142.71 -57.418,146.786L-57.418,148.261C-48.211,144.099 -38.886,141.896 -29.517,141.686C-24.677,141.577 -19.828,142.006 -14.979,142.966C-14.511,142.6 -14.036,142.243 -13.556,141.892C-18.888,140.746 -24.221,140.222 -29.547,140.341M-57.418,149.821L-57.418,151.318C-45.771,145.91 -32.457,143.053 -17.834,145.369C-17.391,144.967 -16.941,144.572 -16.485,144.186C-31.606,141.523 -45.377,144.321 -57.418,149.821M-29.563,148.413C-38.831,148.62 -48.048,150.739 -57.146,154.732L-53.643,154.732C-45.67,151.605 -37.618,149.938 -29.533,149.757C-27.138,149.704 -24.741,149.79 -22.343,149.998C-21.978,149.573 -21.605,149.153 -21.228,148.741C-24.007,148.459 -26.786,148.349 -29.563,148.413M-57.418,141.757L-57.418,143.254C-43.578,136.825 -27.384,134.003 -9.437,139.175C-8.887,138.848 -8.332,138.529 -7.769,138.22C-26.339,132.483 -43.102,135.214 -57.418,141.757M-49.386,154.732L-44.487,154.732C-38.198,153.118 -31.534,152.35 -24.541,152.733C-24.2,152.279 -23.853,151.832 -23.499,151.391C-32.715,150.751 -41.374,152.094 -49.386,154.732M37.311,104.892C45.982,112.586 55.341,117.769 65.578,120.519L65.578,119.125C56.128,116.526 47.441,111.803 39.356,104.892L37.311,104.892ZM48.132,104.892C53.661,108.29 59.464,110.799 65.578,112.444L65.578,111.049C60.43,109.632 55.508,107.581 50.786,104.892L48.132,104.892ZM41.46,104.892C48.9,110.979 56.918,115.238 65.578,117.684L65.578,116.261C57.738,113.994 50.438,110.209 43.629,104.892L41.46,104.892ZM56.764,104.892L53.669,104.892C57.498,106.875 61.466,108.445 65.578,109.608L65.578,108.186C62.562,107.313 59.624,106.216 56.764,104.892M34.605,104.892L32.63,104.892C33.76,105.936 34.89,107.002 36.019,108.105C44.955,116.835 54.766,122.709 65.578,125.76L65.578,124.337C55.117,121.315 45.615,115.599 36.958,107.142C36.175,106.377 35.391,105.63 34.605,104.892M54.547,139.197C58.108,140.926 61.781,142.31 65.578,143.351L65.578,144.746C63.555,144.204 61.566,143.566 59.61,142.834C59.522,142.76 59.436,142.69 59.347,142.616C57.882,141.389 56.273,140.249 54.547,139.197" style="fill:rgb(249,189,95);fill-rule:nonzero;"/>
                    </g>
                    <g transform="matrix(1,0,0,1,474.3154,320.3026)">
                        <path d="M0,165.921C1.053,165.461 2.139,165.082 3.254,164.791C-1.164,164.628 -5.559,163.889 -10.07,162.393C-19.713,159.195 -29.733,152.639 -40.967,142.007C-41.261,142.342 -41.55,142.686 -41.836,143.032C-30.468,153.78 -20.303,160.419 -10.494,163.67C-6.938,164.849 -3.463,165.569 0,165.921M-8.161,158.805C8.146,164.211 22.579,160.609 41.188,154.931C45.496,153.616 50.015,152.506 54.67,151.716C54.49,151.602 54.312,151.485 54.123,151.382C53.715,151.157 53.287,150.917 52.85,150.669C48.699,151.445 44.664,152.464 40.796,153.645C22.426,159.25 8.191,162.81 -7.737,157.528C-17.133,154.414 -26.824,148.273 -37.529,138.492C-37.858,138.795 -38.185,139.105 -38.507,139.418C-29.326,147.815 -20.869,153.578 -12.691,157.083C-11.173,157.733 -9.662,158.308 -8.161,158.805M40.403,152.358C44.019,151.255 47.569,150.35 51.058,149.633C50.51,149.311 49.945,148.973 49.362,148.616C46.292,149.289 43.175,150.106 40.011,151.071C36.571,152.12 33.283,153.096 30.105,153.952C29.148,155.173 27.7,155.999 26.03,156.105C25.074,156.164 24.159,155.981 23.345,155.609C12.791,157.898 3.248,158.336 -6.891,154.975C-15.872,151.995 -25.18,146.105 -35.488,136.723C-35.837,137.007 -36.181,137.298 -36.523,137.594C-26.01,147.182 -16.506,153.203 -7.314,156.252C8.237,161.407 22.272,157.89 40.403,152.358M-16.853,178.506C-15.69,178.892 -14.537,179.223 -13.389,179.515C-13.188,179.098 -12.981,178.687 -12.767,178.282C-13.98,177.984 -15.2,177.637 -16.43,177.23C-26.545,173.875 -37.072,166.827 -48.979,155.258C-49.148,155.723 -49.312,156.19 -49.465,156.659C-39.257,166.508 -30.03,173.068 -21.182,176.86C-19.73,177.483 -18.287,178.031 -16.853,178.506M-46.88,150.529C-47.1,150.944 -47.311,151.362 -47.513,151.783C-35.569,163.19 -24.884,170.206 -14.52,173.642C-13.202,174.078 -11.898,174.45 -10.602,174.774C-10.317,174.375 -10.024,173.986 -9.724,173.606C-11.17,173.264 -12.626,172.853 -14.097,172.365C-24.36,168.963 -34.975,161.953 -46.88,150.529M-42.677,144.083C-42.951,144.437 -43.223,144.796 -43.49,145.161C-33.608,154.473 -24.58,160.769 -15.868,164.502C-14.352,165.152 -12.841,165.726 -11.341,166.224C-8.826,167.057 -6.357,167.675 -3.91,168.106C-3.347,167.718 -2.771,167.353 -2.182,167.017C-5.06,166.602 -7.959,165.927 -10.917,164.946C-20.887,161.642 -31.186,154.932 -42.677,144.083M-4.135,148.833C4.076,151.556 11.865,151.858 20.057,150.725C20.036,150.252 20.076,149.791 20.168,149.347C12.046,150.501 4.356,150.232 -3.712,147.557C-11.704,144.906 -19.954,139.947 -28.937,132.279C-29.35,132.511 -29.76,132.75 -30.167,132.995C-22.511,139.577 -15.372,144.227 -8.464,147.187C-7.012,147.809 -5.568,148.358 -4.135,148.833M30.764,135.165C30.292,134.79 29.8,134.425 29.29,134.067C20.133,135.694 11.624,135.696 2.647,132.72C-1.746,131.264 -6.219,129.104 -10.848,126.186C-11.504,126.286 -12.16,126.396 -12.814,126.518C-7.644,129.909 -2.665,132.376 2.225,133.997C11.874,137.196 20.94,137.054 30.764,135.165M33.455,137.366C33.011,137.008 32.564,136.642 32.115,136.271C21.671,138.404 12.089,138.685 1.801,135.274C-3.551,133.5 -8.996,130.747 -14.671,126.9C-15.256,127.03 -15.84,127.169 -16.421,127.317C-10.28,131.6 -4.4,134.635 1.378,136.55C12.304,140.173 22.391,139.748 33.455,137.366M-1.802,143.969C6.367,146.677 14.066,147.124 22.057,146.183C22.946,145.432 24.072,144.945 25.323,144.867C26.206,144.812 27.052,144.969 27.817,145.284C31.726,144.542 35.743,143.527 39.949,142.34C39.495,142.011 39.035,141.673 38.571,141.329C24.153,145.33 11.983,147.122 -1.378,142.692C-8.614,140.293 -16.025,136.096 -23.938,129.83C-24.404,130.026 -24.868,130.231 -25.329,130.442C-18.718,135.742 -12.446,139.626 -6.332,142.246C-4.814,142.897 -3.304,143.471 -1.802,143.969M37.211,140.308C36.766,139.97 36.317,139.626 35.864,139.275C22.77,142.756 11.541,144.141 -0.532,140.138C-7.099,137.96 -13.84,134.222 -21.02,128.705C-21.518,128.881 -22.014,129.063 -22.506,129.253C-14.949,135.152 -7.865,139.122 -0.955,141.415C11.758,145.63 23.458,144.047 37.211,140.308M-17.699,181.06C-16.614,181.42 -15.538,181.737 -14.467,182.019C-14.304,181.595 -14.134,181.174 -13.956,180.76C-15.056,180.475 -16.161,180.152 -17.276,179.783C-27.497,176.394 -38.063,169.432 -49.907,158.095C-50.048,158.583 -50.182,159.072 -50.306,159.566C-40.245,169.115 -31.073,175.548 -22.227,179.339C-20.71,179.988 -19.2,180.563 -17.699,181.06M-4.981,151.387C3.852,154.316 12.135,154.598 20.829,153.341C20.595,152.943 20.406,152.515 20.274,152.06C11.892,153.227 3.906,152.916 -4.558,150.11C-13.072,147.286 -21.827,141.983 -31.359,133.738C-31.748,133.988 -32.133,134.245 -32.516,134.508C-24.409,141.557 -16.847,146.521 -9.51,149.665C-7.992,150.316 -6.481,150.89 -4.981,151.387M-32.327,214.321C-38.003,212.439 -43.808,209.395 -49.913,205.043C-49.88,205.611 -49.849,206.179 -49.822,206.741C-43.919,210.852 -38.277,213.765 -32.751,215.598C-25.635,217.957 -18.836,218.496 -11.818,217.861C-11.93,217.431 -12.049,216.988 -12.176,216.536C-18.949,217.122 -25.503,216.583 -32.327,214.321M-35.507,221.739C-40.152,220.199 -44.885,217.88 -49.799,214.702C-49.824,215.216 -49.854,215.726 -49.895,216.231C-45.107,219.267 -40.48,221.509 -35.93,223.016C-27.312,225.874 -19.156,226.065 -10.514,224.727C-10.56,224.296 -10.614,223.85 -10.682,223.387C-19.153,224.698 -27.127,224.518 -35.507,221.739M-33.174,216.875C-38.561,215.089 -44.044,212.31 -49.759,208.422C-49.742,208.971 -49.729,209.517 -49.722,210.058C-44.184,213.742 -38.849,216.41 -33.597,218.151C-25.924,220.695 -18.665,221.244 -11.19,220.521C-11.28,220.09 -11.381,219.645 -11.488,219.191C-18.74,219.871 -25.774,219.328 -33.174,216.875M-36.354,224.293C-40.821,222.812 -45.357,220.641 -50.035,217.727C-50.089,218.221 -50.151,218.71 -50.22,219.195C-47.2,221.045 -44.235,222.593 -41.308,223.848C-39.79,224.498 -38.278,225.072 -36.776,225.569C-33.515,226.651 -30.328,227.367 -27.167,227.783L-12.916,227.783C-12.063,227.683 -11.208,227.564 -10.349,227.433C-10.354,227.001 -10.369,226.55 -10.398,226.075C-19.192,227.429 -27.513,227.224 -36.354,224.293M-15.996,187.076C-15.897,186.636 -15.79,186.2 -15.676,185.768C-16.979,185.455 -18.289,185.086 -19.609,184.648C-29.438,181.389 -39.655,174.648 -51.15,163.653C-51.239,164.19 -51.319,164.729 -51.393,165.269C-40.017,176.026 -29.847,182.669 -20.032,185.925C-18.677,186.374 -17.333,186.754 -15.996,187.076M-34.948,209.011C-33.431,209.661 -31.919,210.235 -30.418,210.734C-24.506,212.693 -18.84,213.465 -13.132,213.387C-13.274,212.946 -13.425,212.497 -13.581,212.04C-19.011,212.072 -24.398,211.312 -29.994,209.456C-36.581,207.273 -43.313,203.599 -50.437,198.233C-50.382,198.833 -50.33,199.431 -50.279,200.027C-45,203.912 -39.923,206.879 -34.948,209.011M-16.49,189.729C-16.423,189.281 -16.35,188.837 -16.268,188.397C-17.653,188.063 -19.048,187.668 -20.456,187.201C-30.244,183.957 -40.353,177.429 -51.595,166.922C-51.655,167.482 -51.709,168.043 -51.755,168.608C-40.659,178.848 -30.627,185.247 -20.879,188.479C-19.402,188.968 -17.941,189.382 -16.49,189.729M-16.861,197.734C-16.887,197.272 -16.902,196.812 -16.912,196.353C-19.13,195.94 -21.365,195.372 -23.635,194.62C-32.61,191.647 -41.854,185.911 -51.994,176.879C-51.984,177.487 -51.97,178.096 -51.95,178.705C-42.026,187.393 -32.924,192.959 -24.059,195.897C-21.624,196.704 -19.232,197.306 -16.861,197.734M-16.916,194.981C-16.91,194.525 -16.896,194.069 -16.875,193.618C-18.831,193.236 -20.798,192.726 -22.788,192.067C-31.943,189.031 -41.438,182.968 -51.987,173.265C-52,173.863 -52.009,174.462 -52.01,175.063C-41.659,184.435 -32.284,190.336 -23.212,193.343C-21.09,194.047 -18.996,194.583 -16.916,194.981M-33.9,206.533C-32.449,207.155 -31.005,207.704 -29.571,208.18C-24.297,209.928 -19.197,210.677 -14.053,210.69C-14.143,210.438 -14.229,210.19 -14.323,209.932C-14.396,209.732 -14.464,209.532 -14.533,209.332C-19.387,209.275 -24.196,208.544 -29.147,206.902C-36.061,204.609 -43.167,200.588 -50.773,194.583C-50.716,195.199 -50.658,195.814 -50.601,196.426C-44.804,200.897 -39.282,204.227 -33.9,206.533M-26.392,200.761C-22.95,201.902 -19.582,202.617 -16.229,202.981C-16.314,202.518 -16.391,202.055 -16.46,201.594C-19.604,201.23 -22.756,200.55 -25.968,199.484C-34.108,196.784 -42.517,191.691 -51.695,183.776C-51.654,184.403 -51.61,185.029 -51.563,185.654C-42.63,193.203 -34.394,198.108 -26.392,200.761M-27.238,203.315C-23.282,204.626 -19.437,205.403 -15.615,205.754C-15.734,205.29 -15.847,204.826 -15.949,204.364C-19.528,204.005 -23.126,203.261 -26.814,202.038C-34.669,199.435 -42.729,194.715 -51.414,187.527C-51.362,188.15 -51.309,188.772 -51.254,189.393C-42.815,196.23 -34.938,200.762 -27.238,203.315M10.675,214.396C8.619,215 6.613,215.567 4.646,216.089C4.859,216.496 5.077,216.902 5.303,217.308C7.281,216.778 9.301,216.203 11.368,215.594C11.131,215.197 10.9,214.798 10.675,214.396M14.597,221.1C14.393,220.697 14.183,220.293 13.957,219.883C13.361,220.055 12.769,220.23 12.18,220.408C10.745,220.847 9.338,221.271 7.95,221.68C8.191,222.085 8.419,222.485 8.635,222.88C9.928,222.497 11.238,222.103 12.572,221.695C13.242,221.491 13.918,221.294 14.597,221.1M26.437,181.004C28.079,180.956 29.747,180.957 31.421,180.955C37.496,179.307 43.389,178.221 49.088,177.692C49.828,177.247 50.548,176.741 51.246,176.168C43.601,176.686 35.605,178.207 27.293,180.744C27.005,180.832 26.722,180.917 26.437,181.004M37.056,174.721C36.405,174.762 35.744,174.786 35.078,174.805C33.788,175.151 32.513,175.516 31.257,175.899C22.068,178.703 13.915,180.995 6.066,181.925C5.564,182.405 5.097,182.911 4.651,183.435C13.077,182.627 21.775,180.198 31.65,177.186C38.771,175.013 46.466,173.394 54.406,172.869C54.749,172.42 55.084,171.944 55.41,171.443C52.229,171.616 49.084,171.968 45.995,172.459C43.312,174.102 40.279,174.518 37.056,174.721M-45.496,148.133C-45.641,148.365 -45.788,148.592 -45.929,148.828C-46.024,148.988 -46.114,149.151 -46.207,149.313C-34.355,160.732 -23.825,167.72 -13.674,171.088C-12.019,171.637 -10.382,172.081 -8.755,172.442C-8.409,172.048 -8.056,171.664 -7.692,171.294C-9.531,170.921 -11.381,170.431 -13.25,169.812C-23.278,166.485 -33.713,159.528 -45.496,148.133M5.874,195.779C3.789,196.188 1.736,196.521 -0.295,196.762C-0.312,197.211 -0.316,197.665 -0.312,198.123C1.696,197.89 3.723,197.568 5.779,197.172C5.795,196.703 5.826,196.238 5.874,195.779M8.468,188.473C5.972,188.945 3.521,189.306 1.096,189.528C1.031,189.702 0.961,189.872 0.9,190.049C0.802,190.337 0.711,190.63 0.624,190.925C2.907,190.735 5.209,190.428 7.546,190.015C7.82,189.484 8.124,188.969 8.468,188.473M13.271,218.682C13.041,218.29 12.795,217.894 12.545,217.495C12.161,217.608 11.779,217.718 11.395,217.835C9.722,218.346 8.083,218.839 6.477,219.31C6.687,219.653 6.903,219.996 7.123,220.338C7.157,220.39 7.187,220.441 7.221,220.493C8.716,220.053 10.236,219.596 11.788,219.122C12.284,218.971 12.778,218.826 13.271,218.682M10.688,227.326C10.745,227.479 10.806,227.633 10.859,227.783L14.107,227.783C15.079,227.531 16.06,227.289 17.048,227.062C16.916,226.643 16.772,226.216 16.617,225.78C14.605,226.247 12.628,226.766 10.688,227.326M12.428,164.366C14.234,164.567 15.979,164.749 17.66,164.91C23.784,163.759 30.196,161.92 37.224,159.775C44.47,157.565 51.467,156.133 58.194,155.476C57.953,155.035 57.682,154.61 57.377,154.207C50.772,154.902 43.918,156.327 36.831,158.489C27.912,161.211 20,163.439 12.428,164.366M15.609,223.247C13.636,223.716 11.643,224.246 9.63,224.834C9.828,225.254 10.017,225.668 10.188,226.072C12.189,225.489 14.173,224.966 16.136,224.503C15.972,224.091 15.796,223.672 15.609,223.247M9.407,211.964C7.372,212.558 5.385,213.116 3.44,213.625C3.628,214.037 3.824,214.449 4.025,214.861C5.981,214.346 7.977,213.785 10.021,213.187C9.811,212.781 9.605,212.374 9.407,211.964M7.965,208.634C5.937,209.174 3.951,209.666 1.999,210.097C2.152,210.522 2.311,210.946 2.479,211.372C4.44,210.936 6.436,210.438 8.471,209.893C8.295,209.474 8.126,209.055 7.965,208.634M22.3,165.31C23.85,165.428 25.336,165.523 26.755,165.593C30.359,164.647 34.091,163.544 38.009,162.349C44.665,160.318 51.822,158.772 59.213,158.15C59.108,157.697 58.979,157.252 58.816,156.819C51.43,157.473 44.276,159.03 37.616,161.063C32.2,162.715 27.146,164.187 22.3,165.31M7.088,206.082C5.07,206.616 3.097,207.1 1.157,207.522C1.282,207.951 1.417,208.382 1.558,208.814C3.503,208.388 5.482,207.9 7.504,207.364C7.356,206.937 7.218,206.51 7.088,206.082M10.852,178.459C9.827,179.018 8.864,179.632 7.972,180.306C14.876,179.291 22.082,177.28 30.077,174.852C28.424,174.855 26.737,174.871 25.046,174.947C20.062,176.398 15.374,177.621 10.852,178.459M6.203,202.447C4.182,202.912 2.195,203.315 0.234,203.644C0.314,204.082 0.405,204.524 0.503,204.967C2.466,204.636 4.453,204.232 6.475,203.767C6.374,203.325 6.283,202.886 6.203,202.447M5.847,199.765C3.813,200.235 1.818,200.642 -0.147,200.972C-0.102,201.416 -0.048,201.862 0.017,202.312C1.978,201.984 3.967,201.58 5.992,201.113C5.933,200.661 5.883,200.211 5.847,199.765M-0.205,195.389C1.862,195.138 3.954,194.788 6.081,194.362C6.171,193.873 6.282,193.393 6.413,192.919C4.224,193.371 2.076,193.739 -0.043,194.007C-0.109,194.462 -0.163,194.923 -0.205,195.389M11.887,185.002C8.639,185.745 5.489,186.321 2.396,186.677C2.137,187.144 1.901,187.625 1.678,188.115C4.344,187.842 7.045,187.402 9.809,186.833C10.426,186.181 11.111,185.567 11.887,185.002M19.453,129.065C14.438,127.234 8.74,126.022 2.781,125.625C3.658,125.967 4.533,126.289 5.404,126.578C10.176,128.16 14.805,128.923 19.453,129.065M49.191,162.282C49.531,162.414 49.856,162.606 50.145,162.867C50.331,163.037 50.489,163.229 50.633,163.428C53.563,163.003 56.443,162.722 59.274,162.582C59.364,162.13 59.431,161.678 59.461,161.226C56.105,161.382 52.682,161.732 49.191,162.282M48.19,170.74C50.933,170.364 53.63,170.116 56.284,169.991C56.534,169.547 56.778,169.089 57.016,168.609C54.562,168.702 52.069,168.902 49.542,169.208C49.106,169.777 48.655,170.285 48.19,170.74M51.26,166.099C53.61,165.775 55.992,165.536 58.396,165.4C58.564,164.949 58.73,164.487 58.891,164.01C56.306,164.142 53.745,164.392 51.218,164.738C51.316,165.184 51.338,165.645 51.26,166.099M4.558,129.132C11.661,131.487 18.41,132.132 25.304,131.641C24.493,131.212 23.649,130.804 22.781,130.414C16.879,130.594 11.053,129.868 4.98,127.856C3.011,127.202 1.027,126.41 -0.976,125.486C-1.965,125.479 -2.958,125.491 -3.955,125.53C-2.62,126.214 -1.293,126.844 0.026,127.409C1.545,128.061 3.056,128.634 4.558,129.132M46.105,162.821C42.252,163.549 38.322,164.512 34.317,165.71C40.151,165.544 44.163,164.657 46.105,162.821M31.295,150.132C31.318,150.507 31.304,150.875 31.256,151.233C35.433,150.19 39.772,148.914 44.368,147.512C45.096,147.29 45.831,147.076 46.57,146.866C46.084,146.553 45.588,146.229 45.084,145.896C44.714,146.005 44.343,146.113 43.976,146.226C39.521,147.585 35.313,148.821 31.263,149.843C31.273,149.94 31.289,150.034 31.295,150.132M30.955,148.532C34.976,147.519 39.156,146.29 43.583,144.94C43.601,144.934 43.617,144.929 43.635,144.924C43.168,144.608 42.695,144.282 42.216,143.948C38.056,145.211 34.11,146.359 30.315,147.306C30.575,147.684 30.793,148.093 30.955,148.532M-52.379,227.224C-52.062,227.412 -51.745,227.602 -51.429,227.783L-48.636,227.783C-49.708,227.217 -50.786,226.61 -51.872,225.964C-52.029,226.391 -52.2,226.81 -52.379,227.224M-51.429,224.662C-49.48,225.833 -47.556,226.874 -45.651,227.783L-42.347,227.783C-45.198,226.598 -48.091,225.119 -51.045,223.327C-51.164,223.777 -51.291,224.224 -51.429,224.662M-278.883,116.475C-274.633,109.735 -271.106,101.819 -268.399,92.946C-260.518,67.114 -260.163,35.602 -259.85,7.8L-259.847,7.548C-259.81,4.258 -259.773,1.005 -259.725,-2.201C-259.406,-23.218 -252.932,-41.742 -240.456,-57.454L-240.456,-59.591C-242.959,-56.55 -245.246,-53.405 -247.296,-50.153C-256.18,-36.064 -260.799,-20.023 -261.07,-2.221C-261.118,0.986 -261.155,4.241 -261.192,7.532L-261.195,7.785C-261.507,35.497 -261.86,66.906 -269.685,92.554C-272.358,101.313 -275.835,109.119 -280.021,115.758C-284.926,123.537 -290.846,129.891 -297.873,134.894L-297.873,136.541C-290.364,131.359 -284.068,124.699 -278.883,116.475M-272.056,120.78C-267.806,114.041 -264.279,106.124 -261.572,97.251C-253.69,71.419 -253.336,39.907 -253.023,12.105L-253.02,11.853C-252.983,8.564 -252.946,5.31 -252.897,2.104C-252.643,-14.664 -248.467,-29.844 -240.456,-43.277L-240.456,-45.869C-240.46,-45.862 -240.465,-45.855 -240.469,-45.848C-249.353,-31.759 -253.973,-15.718 -254.243,2.084C-254.291,5.291 -254.328,8.546 -254.365,11.838L-254.368,12.09C-254.68,39.801 -255.033,71.211 -262.858,96.859C-265.531,105.617 -269.008,113.424 -273.193,120.063C-279.613,130.243 -287.77,137.984 -297.873,143.443L-297.873,144.978C-287.27,139.395 -278.742,131.384 -272.056,120.78M-258.402,129.39C-254.152,122.65 -250.625,114.734 -247.918,105.861C-243.52,91.445 -241.466,75.26 -240.456,58.938L-240.456,6.867C-240.521,8.134 -240.569,9.408 -240.589,10.693C-240.637,13.901 -240.674,17.156 -240.711,20.447L-240.714,20.7C-241.026,48.411 -241.379,79.82 -249.204,105.469C-251.877,114.228 -255.354,122.034 -259.54,128.672C-268.632,143.094 -281.208,152.624 -297.873,157.699L-297.873,159.103C-280.693,153.964 -267.747,144.212 -258.402,129.39M-280.331,-5.115L-280.328,-5.367C-280.291,-8.656 -280.254,-11.91 -280.206,-15.116C-280.202,-15.359 -280.191,-15.599 -280.186,-15.841L-281.563,-14.247C-281.605,-11.326 -281.64,-8.371 -281.673,-5.382L-281.676,-5.13C-281.988,22.582 -282.341,53.991 -290.166,79.639C-292.256,86.489 -294.845,92.746 -297.873,98.328L-297.873,101.093C-294.285,94.913 -291.264,87.845 -288.88,80.032C-280.999,54.199 -280.644,22.687 -280.331,-5.115M-287.177,-7.744L-288.541,-6.164C-288.854,20.728 -289.475,50.69 -296.993,75.334C-297.276,76.261 -297.573,77.171 -297.873,78.076L-297.873,82.152C-297.102,80.072 -296.379,77.929 -295.707,75.727C-287.983,50.411 -287.488,19.644 -287.177,-7.744M-283.021,-5.145L-283.021,-5.224C-282.992,-7.729 -282.962,-10.205 -282.929,-12.664L-284.296,-11.08C-284.32,-9.146 -284.343,-7.202 -284.365,-5.24L-284.366,-5.161C-284.676,22.37 -285.027,53.575 -292.74,78.855C-294.212,83.682 -295.926,88.169 -297.873,92.337L-297.873,95.412C-295.388,90.497 -293.245,85.118 -291.453,79.247C-283.684,53.783 -283.332,22.476 -283.021,-5.145M-297.873,4.646L-297.873,26.13C-297.37,18.6 -297.1,11.022 -296.935,3.559L-297.873,4.646ZM-291.27,-3.003C-291.574,20.645 -292.314,46.37 -297.873,68.429L-297.873,73.558C-290.941,49.844 -290.219,21.297 -289.904,-4.584L-291.27,-3.003ZM-235.141,65.744C-235.984,77.967 -237.458,90.052 -240.106,101.302L-238.725,101.302C-236.096,90.028 -234.63,77.949 -233.791,65.744L-235.141,65.744ZM-275.544,176.276C-283.89,178.288 -291.298,180.748 -297.873,183.576L-297.873,185.057C-291.235,182.153 -283.727,179.632 -275.229,177.584C-261.064,174.169 -249.58,167.897 -240.456,158.55L-240.456,156.603C-249.557,166.325 -261.138,172.803 -275.544,176.276M-276.175,173.661C-284.035,175.556 -291.267,177.886 -297.873,180.637L-297.873,182.096C-291.195,179.277 -283.857,176.897 -275.86,174.969C-261.309,171.461 -249.562,164.714 -240.456,154.564L-240.456,152.494C-249.527,163.093 -261.373,170.092 -276.175,173.661M-297.873,204.875L-297.873,206.552C-286.821,198.289 -272.623,192.04 -255.379,187.884C-250.027,186.593 -245.057,184.863 -240.456,182.689L-240.456,181.184C-245.138,183.455 -250.21,185.254 -255.694,186.576C-272.702,190.676 -286.794,196.8 -297.873,204.875M-218.887,175.602L-218.887,177.431C-213.99,173.188 -209.713,168.162 -206.039,162.335C-202.442,156.629 -199.423,150.15 -196.964,142.893L-196.964,138.45C-197.031,138.674 -197.094,138.9 -197.162,139.124C-201.909,154.685 -209.103,166.786 -218.887,175.602M-181.33,16.584L-179.904,16.584C-176.027,4.993 -169.773,-5.563 -161.18,-15.009L-161.18,-16.991C-165.38,-12.508 -169.06,-7.777 -172.199,-2.798C-176.045,3.301 -179.089,9.768 -181.33,16.584M-211.75,158.807C-213.927,162.259 -216.303,165.431 -218.887,168.328L-218.887,170.326C-215.865,167.08 -213.109,163.484 -210.613,159.525C-206.363,152.785 -202.836,144.869 -200.129,135.996C-198.9,131.97 -197.855,127.805 -196.964,123.538L-196.964,116.214C-198.085,122.922 -199.532,129.431 -201.415,135.604C-204.088,144.362 -207.565,152.169 -211.75,158.807M-165.813,16.584C-164.447,13.495 -162.899,10.487 -161.18,7.558L-161.18,4.947C-163.505,8.694 -165.539,12.574 -167.281,16.584L-165.813,16.584ZM-297.873,188.051L-297.873,189.552C-289.473,185.316 -279.852,181.882 -269.033,179.274C-257.886,176.586 -248.385,171.997 -240.456,165.435L-240.456,163.652C-248.407,170.486 -258.01,175.233 -269.348,177.966C-280.011,180.536 -289.524,183.906 -297.873,188.051M-297.873,199.29L-297.873,200.91C-288.443,194.858 -276.529,189.799 -261.575,186.193C-253.731,184.303 -246.71,181.534 -240.456,177.855L-240.456,176.281C-246.771,180.102 -253.894,182.958 -261.891,184.886C-276.619,188.437 -288.439,193.382 -297.873,199.29M-297.873,196.068L-297.873,197.643C-287.991,191.627 -276.084,186.924 -262.206,183.578C-254.093,181.623 -246.854,178.659 -240.456,174.661L-240.456,173.05C-246.911,177.212 -254.254,180.277 -262.521,182.271C-276.21,185.57 -288.01,190.184 -297.873,196.068M-209.144,32.177C-209.193,35.445 -209.231,38.762 -209.269,42.115L-209.27,42.194C-209.579,69.725 -209.93,100.929 -217.643,126.209C-218.039,127.506 -218.458,128.772 -218.887,130.021L-218.887,133.953C-217.981,131.589 -217.132,129.146 -216.356,126.602C-208.587,101.137 -208.235,69.831 -207.924,42.209L-207.923,42.13C-207.886,38.778 -207.849,35.463 -207.799,32.198C-207.391,5.326 -197.215,-17.588 -177.551,-35.91C-172.644,-40.482 -167.151,-44.717 -161.18,-48.575L-161.18,-50.182C-167.504,-46.156 -173.302,-41.707 -178.467,-36.894C-198.411,-18.312 -208.731,4.926 -209.144,32.177M-218.763,23.629C-218.367,-2.482 -208.477,-24.749 -189.371,-42.552C-181.031,-50.322 -171.401,-56.719 -161.227,-61.862L-164.137,-61.862C-173.57,-56.877 -182.488,-50.803 -190.288,-43.536C-196.646,-37.611 -201.998,-31.2 -206.334,-24.323C-212.774,-14.11 -216.961,-2.866 -218.887,9.327L-218.887,33.554L-218.885,33.378C-218.848,30.088 -218.812,26.835 -218.763,23.629M-191.205,-44.52C-184.226,-51.022 -176.071,-56.848 -167.019,-61.862L-169.744,-61.862C-178.066,-57.065 -185.602,-51.579 -192.122,-45.504C-205.224,-33.296 -214.173,-19.077 -218.887,-3.03L-218.887,2.268C-214.705,-15.575 -205.445,-31.252 -191.205,-44.52M-215.971,27.872C-216.021,31.14 -216.058,34.457 -216.095,37.81L-216.096,37.889C-216.326,58.312 -216.582,80.754 -219.845,101.302L-218.887,101.302L-218.887,103.756C-215.257,82.509 -214.99,59.12 -214.751,37.904L-214.75,37.825C-214.713,34.474 -214.675,31.159 -214.625,27.893C-214.218,1.021 -204.041,-21.894 -184.377,-40.215C-177.653,-46.481 -169.839,-52.121 -161.18,-57.01L-161.18,-58.55C-170.195,-53.524 -178.322,-47.695 -185.294,-41.199C-205.237,-22.619 -215.558,0.621 -215.971,27.872M-172.952,16.584L-171.51,16.584C-168.881,9.925 -165.438,3.626 -161.18,-2.296L-161.18,-4.557C-162.665,-2.576 -164.07,-0.558 -165.372,1.506C-168.399,6.306 -170.918,11.338 -172.952,16.584M-211.686,-57.435C-210.062,-58.948 -208.37,-60.423 -206.622,-61.862L-208.706,-61.862C-210.037,-60.733 -211.345,-59.591 -212.603,-58.419C-214.819,-56.354 -216.909,-54.228 -218.887,-52.049L-218.887,-50.035C-216.647,-52.578 -214.249,-55.046 -211.686,-57.435M-218.377,-61.862L-218.887,-61.862L-218.887,-61.383C-218.761,-61.501 -218.639,-61.621 -218.513,-61.74C-218.468,-61.781 -218.422,-61.821 -218.377,-61.862M-198.032,-48.825C-192.968,-53.542 -187.288,-57.906 -181.095,-61.862L-183.542,-61.862C-189.134,-58.164 -194.302,-54.138 -198.948,-49.809C-207.286,-42.041 -213.934,-33.456 -218.887,-24.107L-218.887,-21.141C-213.899,-31.272 -206.943,-40.521 -198.032,-48.825M-204.858,-53.13C-201.568,-56.196 -198.012,-59.109 -194.229,-61.862L-196.48,-61.862C-199.762,-59.398 -202.874,-56.817 -205.775,-54.114C-210.745,-49.484 -215.117,-44.563 -218.887,-39.364L-218.887,-37.028C-214.927,-42.731 -210.252,-48.104 -204.858,-53.13M-202.316,36.482C-202.367,39.75 -202.404,43.067 -202.441,46.42L-202.442,46.499C-202.752,74.03 -203.103,105.234 -210.816,130.514C-212.99,137.639 -215.675,144.04 -218.887,149.734L-218.887,152.392C-215.11,146.124 -211.991,138.976 -209.529,130.906C-201.76,105.442 -201.408,74.135 -201.097,46.514L-201.096,46.435C-201.059,43.084 -201.021,39.769 -200.972,36.503C-200.564,9.631 -190.387,-13.284 -170.724,-31.605C-167.751,-34.374 -164.556,-37.014 -161.18,-39.529L-161.18,-41.205C-164.896,-38.485 -168.396,-35.612 -171.641,-32.589C-191.583,-14.008 -201.904,9.231 -202.316,36.482M-260.655,127.896C-256.509,121.319 -253.128,113.719 -250.491,105.076C-242.722,79.612 -242.37,48.306 -242.059,20.684L-242.058,20.606C-242.021,17.254 -241.983,13.939 -241.934,10.673C-241.85,5.183 -241.352,-0.14 -240.456,-5.294L-240.456,-11.888C-242.213,-4.717 -243.16,2.8 -243.278,10.652C-243.329,13.92 -243.366,17.237 -243.403,20.59L-243.404,20.669C-243.714,48.2 -244.065,79.404 -251.778,104.684C-259.842,131.119 -274.956,147.588 -297.873,154.87L-297.873,156.289C-281.813,151.287 -269.491,141.909 -260.655,127.896M-174.41,16.584C-171.234,8.242 -166.816,0.445 -161.18,-6.783L-161.18,-8.955C-167.524,-1.11 -172.417,7.417 -175.848,16.584L-174.41,16.584ZM-182.752,16.584C-178.5,3.422 -171.289,-8.455 -161.18,-18.947L-161.18,-20.873C-172.055,-9.88 -179.735,2.647 -184.164,16.584L-182.752,16.584ZM-267.482,123.591C-263.335,117.014 -259.955,109.414 -257.318,100.772C-249.549,75.308 -249.197,44.001 -248.886,16.379L-248.885,16.3C-248.848,12.949 -248.811,9.634 -248.761,6.368C-248.552,-7.414 -245.766,-20.152 -240.456,-31.766L-240.456,-34.902C-246.641,-22.439 -249.878,-8.656 -250.105,6.348C-250.155,9.615 -250.193,12.932 -250.23,16.285L-250.231,16.364C-250.541,43.895 -250.892,75.1 -258.605,100.379C-265.84,124.094 -278.749,139.786 -297.873,148.024L-297.873,149.497C-285.101,144.128 -275.021,135.548 -267.482,123.591M-220.989,65.744C-221.559,77.792 -222.613,89.866 -224.671,101.302L-223.303,101.302C-221.257,89.848 -220.21,77.778 -219.642,65.744L-220.989,65.744ZM-192.247,16.584L-190.85,16.584C-186.372,-0.06 -177.358,-14.757 -163.896,-27.3C-163.01,-28.126 -162.103,-28.94 -161.18,-29.744L-161.18,-31.504C-162.419,-30.448 -163.638,-29.379 -164.813,-28.284C-178.564,-15.473 -187.738,-0.446 -192.247,16.584M-179.026,-7.103C-183.673,0.266 -187.141,8.174 -189.442,16.584L-188.049,16.584C-183.632,0.71 -174.947,-13.327 -162.062,-25.332C-161.773,-25.602 -161.472,-25.859 -161.18,-26.126L-161.18,-27.935C-161.783,-27.398 -162.389,-26.866 -162.979,-26.316C-169.338,-20.391 -174.69,-13.98 -179.026,-7.103M-274.309,119.285C-270.163,112.709 -266.782,105.108 -264.146,96.467C-256.376,71.003 -256.024,39.696 -255.713,12.074L-255.712,11.996C-255.675,8.644 -255.638,5.329 -255.587,2.063C-255.303,-16.75 -250.222,-33.621 -240.456,-48.338L-240.456,-50.74C-251.101,-35.427 -256.633,-17.752 -256.933,2.043C-256.982,5.31 -257.02,8.627 -257.058,11.98L-257.059,12.059C-257.368,39.59 -257.719,70.795 -265.432,96.074C-271.77,116.85 -282.463,131.467 -297.873,140.312L-297.873,141.877C-288.278,136.527 -280.451,129.027 -274.309,119.285M-284.626,83.552C-276.857,58.088 -276.505,26.781 -276.194,-0.841L-276.193,-0.919C-276.156,-4.271 -276.119,-7.586 -276.068,-10.852C-276.014,-14.444 -275.779,-17.963 -275.376,-21.412L-276.919,-19.625C-277.199,-16.754 -277.369,-13.839 -277.414,-10.872C-277.463,-7.604 -277.5,-4.287 -277.539,-0.934L-277.54,-0.855C-277.849,26.675 -278.2,57.88 -285.913,83.159C-288.912,92.99 -292.886,101.444 -297.873,108.56L-297.873,110.876C-296.803,109.431 -295.774,107.931 -294.79,106.371C-290.644,99.794 -287.263,92.194 -284.626,83.552M-277.799,87.857C-270.03,62.393 -269.678,31.086 -269.367,3.464L-269.366,3.386C-269.329,0.034 -269.292,-3.281 -269.242,-6.547C-269.1,-15.885 -267.776,-24.744 -265.287,-33.1L-267.362,-30.695C-269.379,-23.049 -270.459,-15.001 -270.586,-6.567C-270.636,-3.3 -270.674,0.017 -270.711,3.37L-270.712,3.449C-271.022,30.98 -271.373,62.185 -279.086,87.464C-283.345,101.425 -289.573,112.6 -297.873,121.118L-297.873,123.052C-294.185,119.425 -290.882,115.306 -287.963,110.676C-283.816,104.1 -280.436,96.499 -277.799,87.857M-281.136,114.981C-276.99,108.404 -273.609,100.804 -270.972,92.162C-263.203,66.698 -262.851,35.391 -262.54,7.769L-262.539,7.691C-262.502,4.339 -262.464,1.024 -262.415,-2.242C-262.069,-25.037 -254.689,-44.983 -240.456,-61.695L-240.456,-61.862L-250.233,-50.537C-258.953,-36.294 -263.489,-20.141 -263.76,-2.262C-263.81,1.005 -263.847,4.322 -263.884,7.675L-263.885,7.754C-264.195,35.285 -264.546,66.49 -272.259,91.77C-277.614,109.324 -286.081,122.481 -297.873,131.476L-297.873,133.184C-291.319,128.356 -285.751,122.301 -281.136,114.981M-218.887,164.108L-218.887,166.236C-216.726,163.702 -214.719,160.969 -212.866,158.03C-208.72,151.453 -205.339,143.854 -202.702,135.211C-199.989,126.317 -198.182,116.71 -196.964,106.796L-196.964,92.79C-198.039,107.491 -200.055,121.926 -203.989,134.818C-207.555,146.508 -212.5,156.247 -218.887,164.108M-230.738,65.744C-231.443,77.909 -232.707,89.999 -235.075,101.302L-233.699,101.302C-231.347,89.978 -230.092,77.892 -229.391,65.744L-230.738,65.744ZM-265.229,125.085C-260.979,118.346 -257.452,110.43 -254.745,101.557C-246.863,75.724 -246.509,44.212 -246.196,16.41L-246.193,16.158C-246.156,12.869 -246.119,9.615 -246.071,6.409C-245.902,-4.667 -244.02,-15.049 -240.456,-24.695L-240.456,-28.385C-244.891,-17.702 -247.226,-6.091 -247.416,6.389C-247.464,9.596 -247.501,12.851 -247.539,16.142L-247.542,16.395C-247.853,44.107 -248.207,75.516 -256.031,101.164C-258.704,109.923 -262.181,117.73 -266.367,124.367C-274.174,136.75 -284.547,145.527 -297.873,150.975L-297.873,152.423C-284.04,146.89 -273.293,137.875 -265.229,125.085M-228.043,65.744C-228.741,77.877 -229.99,89.956 -232.328,101.302L-230.956,101.302C-228.633,89.936 -227.39,77.862 -226.695,65.744L-228.043,65.744ZM-285.709,112.17C-281.46,105.431 -277.933,97.515 -275.226,88.642C-267.345,62.809 -266.99,31.297 -266.677,3.495L-266.674,3.243C-266.637,-0.046 -266.6,-3.3 -266.552,-6.506C-266.378,-17.934 -264.386,-28.626 -260.599,-38.529L-263.035,-35.707C-266.107,-26.597 -267.74,-16.861 -267.897,-6.526C-267.945,-3.319 -267.982,-0.063 -268.02,3.228L-268.022,3.48C-268.334,31.192 -268.687,62.601 -276.512,88.249C-279.185,97.008 -282.662,104.815 -286.848,111.452C-290.074,116.57 -293.743,121.068 -297.873,124.975L-297.873,126.818C-293.283,122.642 -289.239,117.768 -285.709,112.17M-253.828,132.2C-249.682,125.624 -246.301,118.024 -243.664,109.382C-239.579,95.989 -237.545,80.982 -236.49,65.744L-237.839,65.744C-238.891,80.865 -240.909,95.741 -244.951,108.989C-253.656,137.526 -270.569,154.457 -296.656,160.746C-297.066,160.845 -297.467,160.949 -297.873,161.05L-297.873,162.437C-297.363,162.309 -296.856,162.178 -296.341,162.054C-277.667,157.552 -263.611,147.717 -253.828,132.2M-282.372,171.971C-287.949,173.316 -293.101,174.864 -297.873,176.584L-297.873,178.02C-293.02,176.246 -287.763,174.654 -282.056,173.279C-264.098,168.949 -250.447,160.026 -240.456,146.068L-240.456,143.715C-250.344,158.305 -264.08,167.562 -282.372,171.971M-223.683,65.744C-224.258,77.82 -225.325,89.903 -227.408,101.302L-226.04,101.302C-223.97,89.884 -222.908,77.806 -222.335,65.744L-223.683,65.744ZM-275.5,227.783C-266.387,219.737 -254.676,213.332 -240.456,208.625L-240.456,207.209C-255.637,212.179 -268.024,219.057 -277.517,227.783L-275.5,227.783ZM-295.555,1.961C-295.816,14.882 -296.366,28.194 -297.873,41.044L-297.873,50.849C-295.231,34.521 -294.488,17.082 -294.179,0.367L-295.555,1.961ZM-162.846,16.584C-162.315,15.428 -161.762,14.282 -161.18,13.15L-161.18,10.297C-162.314,12.356 -163.371,14.448 -164.333,16.584L-162.846,16.584ZM-203.024,-51.162C-198.826,-55.074 -194.294,-58.629 -189.538,-61.862L-191.908,-61.862C-196.133,-58.891 -200.17,-55.66 -203.941,-52.146C-209.777,-46.708 -214.754,-40.856 -218.887,-34.615L-218.887,-32.137C-214.604,-38.947 -209.317,-45.298 -203.024,-51.162M-209.852,-55.467C-207.438,-57.715 -204.909,-59.839 -202.297,-61.862L-204.476,-61.862C-206.639,-60.134 -208.745,-58.336 -210.769,-56.451C-213.691,-53.727 -216.391,-50.897 -218.887,-47.97L-218.887,-45.881C-216.147,-49.205 -213.139,-52.403 -209.852,-55.467M-214.354,-61.862L-216.366,-61.862C-216.775,-61.492 -217.192,-61.131 -217.595,-60.756C-218.035,-60.346 -218.458,-59.929 -218.887,-59.515L-218.887,-57.645C-218.164,-58.36 -217.431,-59.071 -216.678,-59.771C-215.917,-60.482 -215.138,-61.174 -214.354,-61.862M-282.053,84.337C-276.88,67.381 -274.949,47.978 -274.145,28.784C-273.724,18.735 -273.612,8.744 -273.504,-0.81L-273.501,-1.062C-273.464,-4.351 -273.427,-7.605 -273.378,-10.811C-273.304,-15.73 -272.892,-20.513 -272.145,-25.156L-273.782,-23.259C-274.34,-19.217 -274.659,-15.076 -274.724,-10.831C-274.772,-7.623 -274.809,-4.369 -274.846,-1.078L-274.849,-0.825C-275.161,26.887 -275.514,58.296 -283.339,83.944C-286.012,92.703 -289.489,100.51 -293.674,107.148C-294.999,109.248 -296.399,111.241 -297.873,113.136L-297.873,115.296C-295.979,112.977 -294.2,110.503 -292.537,107.865C-288.287,101.126 -284.76,93.209 -282.053,84.337M-196.197,-46.857C-190.044,-52.59 -183.186,-57.574 -175.927,-61.862L-178.522,-61.862C-185.156,-57.791 -191.434,-53.134 -197.114,-47.841C-203.473,-41.916 -208.825,-35.505 -213.161,-28.628C-215.325,-25.197 -217.23,-21.648 -218.887,-17.988L-218.887,-14.587C-213.983,-26.554 -206.408,-37.343 -196.197,-46.857M-244.58,227.783C-243.249,227.056 -241.873,226.348 -240.456,225.656L-240.456,224.146C-242.882,225.307 -245.186,226.52 -247.369,227.783L-244.58,227.783ZM-192.68,-15.713C-201.564,-1.625 -206.184,14.417 -206.454,32.218C-206.502,35.426 -206.539,38.681 -206.576,41.972L-206.579,42.224C-206.891,69.936 -207.244,101.345 -215.069,126.993C-216.198,130.692 -217.479,134.211 -218.887,137.554L-218.887,140.897C-216.959,136.692 -215.247,132.185 -213.783,127.386C-205.901,101.553 -205.547,70.042 -205.234,42.239L-205.231,41.987C-205.194,38.698 -205.157,35.444 -205.108,32.238C-204.713,6.129 -194.825,-16.137 -175.716,-33.942C-171.208,-38.142 -166.323,-41.943 -161.18,-45.362L-161.18,-46.957C-166.656,-43.375 -171.856,-39.377 -176.633,-34.926C-182.992,-29.001 -188.343,-22.59 -192.68,-15.713M-185.853,-11.408C-194.737,2.68 -199.357,18.721 -199.627,36.524C-199.675,39.731 -199.712,42.986 -199.75,46.277L-199.752,46.529C-200.064,74.241 -200.417,105.65 -208.242,131.299C-210.915,140.058 -214.392,147.863 -218.578,154.502C-218.679,154.664 -218.785,154.82 -218.887,154.982L-218.887,157.423C-218.396,156.7 -217.912,155.969 -217.439,155.22C-213.19,148.481 -209.663,140.564 -206.956,131.691C-199.075,105.858 -198.72,74.346 -198.407,46.544L-198.404,46.292C-198.367,43.003 -198.33,39.75 -198.282,36.543C-198.205,31.452 -197.761,26.508 -196.964,21.713L-196.964,16.584L-195.959,16.584C-191.981,-1.067 -182.926,-16.558 -168.89,-29.637C-166.428,-31.931 -163.847,-34.096 -161.18,-36.154L-161.18,-37.859C-164.176,-35.59 -167.061,-33.18 -169.807,-30.621C-176.165,-24.697 -181.517,-18.285 -185.853,-11.408M-199.507,-20.018C-208.391,-5.93 -213.01,10.111 -213.281,27.913C-213.329,31.121 -213.366,34.376 -213.403,37.667L-213.406,37.92C-213.672,61.522 -213.971,87.803 -218.887,110.926L-218.887,116.865C-212.678,92.298 -212.349,63.544 -212.061,37.934L-212.058,37.682C-212.021,34.393 -211.984,31.14 -211.936,27.933C-211.54,1.823 -201.651,-20.444 -182.543,-38.247C-176.082,-44.267 -168.843,-49.463 -161.18,-53.892L-161.18,-55.431C-169.179,-50.871 -176.737,-45.496 -183.46,-39.231C-189.819,-33.307 -195.171,-26.895 -199.507,-20.018M-218.887,179.247L-218.887,180.991C-213.065,176.295 -208.049,170.592 -203.786,163.829C-201.245,159.799 -198.968,155.34 -196.964,150.515L-196.964,146.866C-199.22,152.841 -201.882,158.288 -204.923,163.112C-208.896,169.412 -213.535,174.776 -218.887,179.247M-250.096,227.783C-247.073,225.942 -243.857,224.227 -240.456,222.633L-240.456,221.149C-244.815,223.161 -248.879,225.372 -252.636,227.783L-250.096,227.783ZM-297.873,218.629L-297.873,220.606C-287.244,209.619 -271.291,200.437 -247.921,194.804C-245.344,194.183 -242.857,193.464 -240.456,192.651L-240.456,191.228C-242.953,192.089 -245.544,192.847 -248.237,193.496C-271.19,199.029 -287.092,207.943 -297.873,218.629M-289.199,167.666C-292.211,168.393 -295.1,169.178 -297.873,170.017L-297.873,171.425C-295.005,170.548 -292.013,169.729 -288.883,168.974C-269.358,164.267 -254.921,154.135 -244.748,138C-243.221,135.578 -241.792,132.999 -240.456,130.284L-240.456,127.131C-242.104,130.756 -243.913,134.153 -245.886,137.282C-255.863,153.107 -270.031,163.045 -289.199,167.666M-258.493,227.783C-253.304,224.287 -247.325,221.103 -240.456,218.314L-240.456,216.85C-248.383,220.019 -255.148,223.705 -260.913,227.783L-258.493,227.783ZM-282.793,227.783C-273.188,218.416 -259.526,210.459 -240.456,205.038L-240.456,203.638C-260.653,209.319 -274.909,217.797 -284.767,227.783L-282.793,227.783ZM-297.873,214.754L-297.873,216.583C-286.091,205.435 -269.579,197.257 -248.552,192.189C-245.749,191.513 -243.052,190.714 -240.456,189.797L-240.456,188.359C-243.147,189.331 -245.947,190.177 -248.867,190.881C-269.591,195.876 -285.987,203.878 -297.873,214.754M-289.829,165.051C-292.587,165.716 -295.269,166.435 -297.873,167.205L-297.873,168.611C-295.17,167.803 -292.386,167.051 -289.514,166.358C-270.84,161.858 -256.784,152.023 -247.001,136.505C-244.551,132.619 -242.375,128.366 -240.456,123.762L-240.456,120.121C-249.692,144.548 -265.897,159.281 -289.829,165.051M-283.002,169.356C-288.238,170.618 -293.192,172.076 -297.873,173.72L-297.873,175.144C-293.105,173.451 -288.044,171.955 -282.687,170.663C-264.19,166.204 -250.227,156.509 -240.456,141.245L-240.456,138.678C-250.09,154.704 -264.149,164.811 -283.002,169.356M-297.873,191.098L-297.873,192.64C-289.69,188.33 -279.957,184.674 -268.402,181.889C-257.565,179.276 -248.299,174.989 -240.456,168.936L-240.456,167.219C-248.326,173.503 -257.693,177.923 -268.718,180.581C-280.088,183.322 -289.727,186.894 -297.873,191.098M-297.873,208.344L-297.873,210.107C-287.578,201.877 -273.571,195.036 -254.749,190.499C-249.64,189.267 -244.882,187.66 -240.456,185.676L-240.456,184.196C-244.963,186.266 -249.826,187.928 -255.063,189.192C-273.586,193.656 -287.518,200.322 -297.873,208.344M-252.712,132.978C-262.69,148.802 -276.858,158.74 -296.026,163.361C-296.65,163.512 -297.259,163.67 -297.873,163.825L-297.873,165.212C-297.157,165.028 -296.441,164.845 -295.71,164.669C-276.185,159.962 -261.748,149.83 -251.575,133.694C-247.325,126.955 -243.798,119.039 -241.091,110.166C-240.873,109.451 -240.663,108.73 -240.456,108.006L-240.456,102.765C-241.041,105.142 -241.678,107.482 -242.377,109.774C-245.05,118.532 -248.527,126.339 -252.712,132.978M-271.139,227.783C-263.291,221.384 -253.224,215.81 -240.456,211.473L-240.456,210.049C-254.317,214.699 -265.062,220.78 -273.296,227.783L-271.139,227.783ZM-297.873,226.205L-297.873,227.783L-297.417,227.783C-285.552,213.063 -266.873,202.556 -241.725,196.493C-241.298,196.391 -240.877,196.282 -240.456,196.174L-240.456,194.779C-240.982,194.917 -241.506,195.057 -242.041,195.186C-267.071,201.22 -285.795,211.633 -297.873,226.205M-288.655,227.783L-286.812,227.783C-275.905,216.351 -260.386,207.789 -240.456,202.241L-240.456,200.846C-261.336,206.605 -277.474,215.635 -288.655,227.783M-295.5,227.783L-293.672,227.783C-283.106,215.529 -266.473,205.227 -241.094,199.109C-240.88,199.057 -240.669,199.001 -240.456,198.947L-240.456,197.561C-240.773,197.641 -241.089,197.724 -241.41,197.801C-267.757,204.152 -284.817,214.956 -295.5,227.783M-199.314,184.193C-198.513,183.365 -197.729,182.514 -196.964,181.638L-196.964,179.566C-198.319,181.189 -199.734,182.731 -201.211,184.193L-199.314,184.193ZM-212.842,184.193L-210.729,184.193C-205.473,179.717 -200.898,174.381 -196.964,168.143L-196.964,165.542C-197.337,166.173 -197.711,166.805 -198.097,167.417C-202.261,174.022 -207.159,179.598 -212.842,184.193M-263.344,227.783C-256.797,222.95 -249.16,218.817 -240.456,215.396L-240.456,213.95C-250.12,217.702 -258.504,222.32 -265.577,227.783L-263.344,227.783ZM-217.382,184.193L-215.089,184.193C-208.908,179.475 -203.624,173.637 -199.212,166.64C-198.433,165.403 -197.689,164.119 -196.964,162.811L-196.964,159.962C-202.199,170.108 -208.981,178.159 -217.382,184.193M-196.964,175.184L-196.964,177.397C-198.908,179.836 -200.985,182.101 -203.199,184.193L-205.213,184.193C-202.224,181.498 -199.473,178.499 -196.964,175.184" style="fill:rgb(54,109,153);fill-rule:nonzero;"/>
                    </g>
                    <g transform="matrix(1,0,0,1,503.4932,507.7933)">
                        <path d="M0,0.611C0.371,0.411 0.739,0.207 1.105,0C0.536,0.002 -0.026,0.004 -0.579,0.008L0,0.611Z" style="fill:rgb(28,28,28);fill-rule:nonzero;"/>
                    </g>
                    <g transform="matrix(-0.993438,-0.11437,-0.11437,0.993438,487.430271,261.034954)">
                        <path d="M1.596,-2.427C1.681,-2.296 1.76,-2.165 1.843,-2.034L1.596,0.108C1.038,-0.81 0.455,-1.72 -0.139,-2.627L1.596,-2.427Z" style="fill:rgb(75,183,175);fill-rule:nonzero;"/>
                    </g>
                    <g transform="matrix(1,0,0,1,547.9463,468.9379)">
                        <path d="M0,-131.349L1.391,-131.349C5.006,-144.384 11.575,-156.271 21.05,-166.907L19.257,-166.907C15.171,-162.212 11.631,-157.283 8.651,-152.122C4.865,-145.562 1.985,-138.629 0,-131.349M6.773,-131.349C10.938,-144.393 18.054,-156.283 28.085,-166.907L26.251,-166.907C16.424,-156.254 9.443,-144.368 5.355,-131.349L6.773,-131.349ZM16.871,-109.49L16.871,-104.447C17.043,-106.144 17.259,-107.825 17.517,-109.49L16.871,-109.49ZM-17.219,-111.758C-17.142,-108.551 -17.052,-105.297 -16.96,-102.007L-16.953,-101.755C-16.183,-74.052 -15.309,-42.653 -22.125,-16.718C-22.911,-13.729 -23.801,-10.854 -24.775,-8.082C-24.383,-7.823 -23.995,-7.57 -23.614,-7.325C-22.584,-10.225 -21.649,-13.241 -20.824,-16.376C-13.958,-42.497 -14.835,-73.999 -15.608,-101.792L-15.615,-102.044C-15.707,-105.332 -15.797,-108.585 -15.874,-111.79C-16.367,-132.438 -10.827,-150.913 0.61,-166.907L-1.032,-166.907C-2.569,-164.712 -4.009,-162.476 -5.328,-160.191C-13.655,-145.766 -17.645,-129.557 -17.219,-111.758M16.871,-9.209C20.709,-32.378 19.99,-58.302 19.341,-81.618L19.334,-81.87C19.242,-85.158 19.152,-88.41 19.076,-91.616C18.929,-97.77 19.324,-103.729 20.244,-109.49L18.887,-109.49C17.979,-103.715 17.584,-97.747 17.73,-91.583C17.808,-88.376 17.898,-85.122 17.989,-81.832L17.996,-81.58C18.555,-61.519 19.165,-39.52 16.871,-19.061L16.871,-9.209ZM-10.229,-107.723C-10.152,-104.516 -10.062,-101.262 -9.971,-97.972L-9.964,-97.72C-9.192,-70.017 -8.318,-38.619 -15.136,-12.684C-15.942,-9.614 -16.857,-6.662 -17.862,-3.824C-17.451,-3.588 -17.054,-3.364 -16.672,-3.153C-15.622,-6.094 -14.672,-9.157 -13.835,-12.342C-6.969,-38.462 -7.845,-69.964 -8.618,-97.758L-8.626,-98.009C-8.717,-101.297 -8.808,-104.55 -8.884,-107.756C-9.42,-130.163 -2.85,-150.011 10.654,-166.907L8.939,-166.907C6.231,-163.442 3.8,-159.86 1.662,-156.157C-6.665,-141.731 -10.654,-125.522 -10.229,-107.723M-19.908,-111.694C-19.83,-108.427 -19.738,-105.111 -19.645,-101.759L-19.643,-101.68C-18.877,-74.158 -18.009,-42.964 -24.728,-17.403C-24.9,-16.746 -25.082,-16.103 -25.264,-15.458L-25.264,-10.803C-24.604,-12.828 -23.991,-14.913 -23.427,-17.06C-16.658,-42.808 -17.529,-74.105 -18.298,-101.718L-18.3,-101.796C-18.394,-105.147 -18.485,-108.461 -18.563,-111.726C-19.057,-132.316 -13.718,-150.805 -2.678,-166.907L-4.311,-166.907C-15.161,-150.753 -20.4,-132.256 -19.908,-111.694M-12.918,-107.659C-12.841,-104.392 -12.748,-101.076 -12.654,-97.724L-12.652,-97.645C-11.887,-70.123 -11.019,-38.929 -17.737,-13.368C-18.481,-10.538 -19.312,-7.821 -20.223,-5.207C-19.819,-4.965 -19.429,-4.734 -19.047,-4.509C-18.089,-7.236 -17.214,-10.068 -16.437,-13.026C-9.668,-38.774 -10.539,-70.07 -11.308,-97.683L-11.311,-97.762C-11.403,-101.112 -11.496,-104.426 -11.573,-107.691C-12.107,-130.022 -5.784,-149.883 7.236,-166.907L5.544,-166.907C-7.246,-149.823 -13.451,-129.955 -12.918,-107.659M-1.4,-131.349C2.081,-144.33 8.388,-156.216 17.481,-166.907L15.723,-166.907C6.807,-156.19 0.622,-144.305 -2.796,-131.349L-1.4,-131.349ZM32.528,43.858C36.512,36.958 39.727,28.91 42.085,19.938C48.951,-6.183 48.074,-37.685 47.301,-65.478L47.294,-65.73C47.202,-69.018 47.112,-72.27 47.036,-75.476C46.746,-87.581 48.532,-98.939 52.362,-109.49L50.93,-109.49C47.159,-98.916 45.401,-87.549 45.69,-75.443C45.768,-72.237 45.858,-68.982 45.949,-65.693L45.956,-65.44C46.728,-37.738 47.602,-6.338 40.784,19.596C38.456,28.453 35.286,36.389 31.363,43.185C22.1,59.236 8.497,69.672 -10.2,75.083L-9.149,76.176C9.55,70.609 23.194,60.03 32.528,43.858M74.17,-131.349C74.305,-131.516 74.441,-131.681 74.579,-131.847L74.579,-133.925C73.852,-133.074 73.144,-132.215 72.452,-131.349L74.17,-131.349ZM16.871,12.778C17.455,10.948 18.006,9.078 18.513,7.15C25.281,-18.599 24.41,-49.895 23.642,-77.508L23.64,-77.587C23.546,-80.937 23.454,-84.251 23.376,-87.516C23.194,-95.133 23.811,-102.462 25.217,-109.49L23.842,-109.49C22.455,-102.448 21.85,-95.108 22.031,-87.484C22.109,-84.217 22.202,-80.901 22.295,-77.549L22.297,-77.471C23.063,-49.949 23.932,-18.754 17.212,6.807C17.103,7.225 16.984,7.631 16.871,8.045L16.871,12.778ZM70.722,-131.349C71.947,-132.92 73.237,-134.464 74.579,-135.986L74.579,-138.012C72.61,-135.842 70.764,-133.62 69.029,-131.349L70.722,-131.349ZM30.219,42.453C34.104,35.719 37.187,27.993 39.482,19.255C46.251,-6.494 45.38,-37.79 44.612,-65.403L44.609,-65.482C44.517,-68.832 44.424,-72.146 44.347,-75.411C44.057,-87.516 45.787,-98.894 49.5,-109.49L48.069,-109.49C44.412,-98.872 42.712,-87.484 43.001,-75.379C43.079,-72.112 43.172,-68.796 43.265,-65.445L43.267,-65.366C44.033,-37.843 44.901,-6.649 38.182,18.913C30.598,47.768 14.359,65.346 -11.462,72.65C-11.745,72.73 -12.022,72.814 -12.305,72.895L-11.252,73.99C-11.199,73.975 -11.148,73.959 -11.096,73.944C7.388,68.716 21.049,58.34 30.219,42.453M26.598,-109.49C25.171,-102.476 24.539,-95.159 24.721,-87.548C24.798,-84.341 24.888,-81.087 24.979,-77.797L24.986,-77.545C25.758,-49.842 26.632,-18.444 19.814,7.491C18.948,10.785 17.966,13.951 16.871,16.978L16.871,20.749C18.498,16.7 19.918,12.387 21.115,7.833C27.981,-18.287 27.104,-49.789 26.331,-77.583L26.324,-77.834C26.232,-81.122 26.143,-84.375 26.065,-87.581C25.884,-95.184 26.525,-102.491 27.973,-109.49L26.598,-109.49ZM23.229,38.418C27.114,31.684 30.196,23.958 32.493,15.219C39.262,-10.529 38.391,-41.826 37.622,-69.438L37.62,-69.517C37.526,-72.867 37.434,-76.181 37.356,-79.447C37.104,-90.029 38.396,-100.055 41.204,-109.49L39.798,-109.49C37.03,-100.036 35.758,-90 36.012,-79.414C36.089,-76.147 36.182,-72.831 36.275,-69.479L36.277,-69.4C37.043,-41.878 37.911,-10.684 31.192,14.878C23.764,43.138 8.028,60.576 -16.874,68.143L-15.827,69.233C1.514,63.813 14.437,53.65 23.229,38.418M18.549,35.788C22.531,28.888 25.747,20.839 28.105,11.868C34.972,-14.253 34.095,-45.754 33.321,-73.548L33.314,-73.8C33.223,-77.088 33.133,-80.34 33.056,-83.546C32.839,-92.622 33.789,-101.278 35.892,-109.49L34.505,-109.49C32.434,-101.261 31.494,-92.596 31.711,-83.514C31.788,-80.307 31.878,-77.052 31.97,-73.762L31.977,-73.51C32.747,-45.807 33.621,-14.409 26.805,11.526C24.476,20.382 21.307,28.319 17.384,35.116C8.924,49.773 -3.152,59.75 -19.424,65.493L-18.403,66.553C-2.109,60.672 10.02,50.565 18.549,35.788M25.538,39.823C29.521,32.923 32.736,24.875 35.095,15.903C41.961,-10.218 41.085,-41.72 40.312,-69.513L40.304,-69.765C40.213,-73.053 40.122,-76.305 40.046,-79.511C39.793,-90.087 41.122,-100.094 44.017,-109.49L42.619,-109.49C39.768,-100.073 38.448,-90.059 38.701,-79.478C38.777,-76.271 38.868,-73.017 38.959,-69.727L38.966,-69.475C39.737,-41.772 40.611,-10.373 33.794,15.561C31.466,24.418 28.297,32.354 24.373,39.151C15.512,54.505 2.68,64.72 -14.786,70.315L-13.746,71.396C3.731,65.654 16.606,55.297 25.538,39.823M37.208,46.488C41.095,39.755 44.176,32.028 46.473,23.29C53.241,-2.458 52.37,-33.755 51.602,-61.369L51.6,-61.447C51.506,-64.797 51.414,-68.111 51.336,-71.377C51.01,-85.033 53.25,-97.764 58.014,-109.49L56.554,-109.49C51.864,-97.739 49.664,-84.996 49.991,-71.345C50.069,-68.078 50.161,-64.761 50.255,-61.41L50.257,-61.33C51.023,-33.809 51.892,-2.615 45.172,22.948C37.587,51.802 21.349,69.381 -4.472,76.685C-5.574,76.997 -6.659,77.319 -7.735,77.647L-6.69,78.733C-5.837,78.477 -4.976,78.225 -4.106,77.979C14.378,72.752 28.039,62.375 37.208,46.488M-60.237,-125.928L-60.24,-126.006C-60.333,-129.357 -60.426,-132.67 -60.503,-135.936C-61.146,-162.803 -51.872,-186.097 -32.938,-205.173C-31.13,-206.996 -29.227,-208.768 -27.25,-210.497L-29.277,-210.497C-30.868,-209.068 -32.414,-207.612 -33.894,-206.121C-53.094,-186.777 -62.5,-163.151 -61.848,-135.904C-61.771,-132.637 -61.678,-129.321 -61.585,-125.969L-61.582,-125.89C-61.08,-107.832 -60.533,-88.193 -62.114,-69.601L-62.114,-62.328L-61.503,-62.328C-59.048,-83.052 -59.669,-105.497 -60.237,-125.928M-53.25,-121.971C-53.344,-125.322 -53.436,-128.636 -53.514,-131.901C-54.156,-158.768 -44.881,-182.063 -25.949,-201.139C-22.702,-204.41 -19.175,-207.535 -15.399,-210.497L-17.539,-210.497C-20.863,-207.814 -23.999,-205.012 -26.903,-202.086C-46.104,-182.74 -55.51,-159.116 -54.858,-131.869C-54.78,-128.602 -54.688,-125.286 -54.595,-121.934L-54.593,-121.855C-54.061,-102.744 -53.482,-81.864 -55.426,-62.328L-54.073,-62.328C-52.137,-81.907 -52.716,-102.782 -53.247,-121.892L-53.25,-121.971ZM-4.697,-189.308L-4.697,-191.187C-5.109,-190.785 -5.53,-190.388 -5.934,-189.981C-25.136,-170.636 -34.54,-147.011 -33.888,-119.764C-33.811,-116.497 -33.718,-113.181 -33.625,-109.829L-33.622,-109.75C-33.199,-94.54 -32.747,-78.21 -33.56,-62.328L-32.213,-62.328C-31.402,-78.237 -31.854,-94.571 -32.277,-109.787L-32.28,-109.867C-32.373,-113.217 -32.466,-116.531 -32.543,-119.796C-33.187,-146.662 -23.912,-169.957 -4.979,-189.034C-4.887,-189.126 -4.789,-189.216 -4.697,-189.308M-4.697,-199.751L-4.697,-201.508C-7.601,-199.106 -10.351,-196.608 -12.924,-194.016C-32.125,-174.67 -41.53,-151.046 -40.878,-123.799C-40.8,-120.532 -40.708,-117.216 -40.614,-113.864L-40.612,-113.785C-40.153,-97.284 -39.659,-79.463 -40.784,-62.328L-39.435,-62.328C-38.313,-79.495 -38.809,-97.316 -39.268,-113.823L-39.27,-113.901C-39.363,-117.252 -39.455,-120.566 -39.533,-123.831C-40.176,-150.698 -30.901,-173.993 -11.969,-193.069C-9.683,-195.372 -7.25,-197.599 -4.697,-199.751M8.188,-131.349L9.609,-131.349C13.941,-144.453 21.359,-156.346 31.825,-166.907L29.959,-166.907C24.271,-161.025 19.487,-154.748 15.642,-148.086C12.561,-142.749 10.077,-137.165 8.188,-131.349M-38.607,-210.497L-40.534,-210.497C-40.648,-210.382 -40.77,-210.271 -40.884,-210.156C-50.357,-200.61 -57.441,-190.021 -62.114,-178.472L-62.114,-174.683C-57.565,-187.355 -50.16,-198.899 -39.929,-209.208C-39.498,-209.643 -39.049,-210.068 -38.607,-210.497M-47.696,-210.497C-53.05,-204.845 -57.575,-198.834 -61.248,-192.471C-61.547,-191.953 -61.827,-191.429 -62.114,-190.907L-62.114,-188.049C-57.991,-196.074 -52.561,-203.567 -45.835,-210.497L-47.696,-210.497ZM-58.31,-210.497C-59.638,-208.938 -60.906,-207.353 -62.114,-205.743L-62.114,-203.478C-60.39,-205.873 -58.533,-208.214 -56.542,-210.497L-58.31,-210.497ZM15.157,-131.349C19.734,-143.609 27.013,-154.8 36.961,-164.824C37.658,-165.526 38.375,-166.219 39.098,-166.907L37.171,-166.907C36.783,-166.528 36.386,-166.154 36.006,-165.771C25.788,-155.476 18.345,-143.969 13.714,-131.349L15.157,-131.349ZM-51.374,-210.497C-55.466,-205.97 -59.043,-201.221 -62.114,-196.262L-62.114,-193.652C-58.646,-199.569 -54.452,-205.188 -49.541,-210.497L-51.374,-210.497ZM62.403,-131.349L64.066,-131.349C66.955,-135.305 70.203,-139.11 73.82,-142.754C74.068,-143.004 74.328,-143.244 74.579,-143.492L74.579,-145.369C74.005,-144.815 73.427,-144.267 72.865,-143.702C68.958,-139.765 65.474,-135.644 62.403,-131.349M-25.264,-62.328L-25.264,-57.466C-24.395,-73.635 -24.857,-90.273 -25.288,-105.753L-25.29,-105.831C-25.384,-109.182 -25.476,-112.495 -25.554,-115.761C-26.114,-139.236 -19.104,-159.983 -4.697,-177.572L-4.697,-179.666C-20.014,-161.562 -27.481,-140.096 -26.898,-115.729C-26.82,-112.462 -26.728,-109.146 -26.635,-105.794L-26.633,-105.715C-26.245,-91.791 -25.833,-76.927 -26.389,-62.328L-25.264,-62.328ZM-4.697,-175.408C-7.543,-171.809 -10.091,-168.084 -12.318,-164.226C-20.645,-149.802 -24.634,-133.592 -24.209,-115.793C-24.132,-112.586 -24.042,-109.332 -23.95,-106.042L-23.943,-105.79C-23.37,-85.18 -22.742,-62.526 -25.264,-41.596L-25.264,-32.277C-21.208,-55.734 -21.938,-82.128 -22.599,-105.828L-22.605,-106.079C-22.697,-109.368 -22.787,-112.62 -22.864,-115.826C-23.381,-137.461 -17.273,-156.71 -4.697,-173.22L-4.697,-175.408ZM59.117,-131.349L60.75,-131.349C63.995,-135.985 67.714,-140.421 71.91,-144.649C72.779,-145.524 73.671,-146.387 74.579,-147.241L74.579,-149.064C73.341,-147.925 72.124,-146.773 70.956,-145.597C66.472,-141.079 62.529,-136.325 59.117,-131.349M22.301,-131.349L23.764,-131.349C28.366,-142.039 35.104,-151.875 43.951,-160.789C46.039,-162.892 48.255,-164.929 50.565,-166.907L48.502,-166.907C46.591,-165.226 44.751,-163.504 42.996,-161.736C33.878,-152.55 26.974,-142.396 22.301,-131.349M31.118,-131.349L32.613,-131.349C37.104,-140.49 43.219,-148.973 50.94,-156.754C54.481,-160.322 58.365,-163.709 62.532,-166.907L60.335,-166.907C56.64,-163.988 53.177,-160.916 49.986,-157.702C41.989,-149.644 35.698,-140.843 31.118,-131.349M49.509,-131.349L51.089,-131.349C54.911,-137.46 59.521,-143.244 64.921,-148.684C67.908,-151.694 71.143,-154.573 74.579,-157.322L74.579,-159.051C70.782,-156.069 67.234,-152.924 63.966,-149.631C58.284,-143.907 53.468,-137.806 49.509,-131.349M16.238,34.382C20.125,27.649 23.206,19.922 25.503,11.184C32.271,-14.564 31.4,-45.861 30.632,-73.473L30.63,-73.552C30.536,-76.902 30.444,-80.216 30.366,-83.481C30.149,-92.568 31.07,-101.245 33.111,-109.49L31.726,-109.49C29.713,-101.228 28.804,-92.542 29.021,-83.449C29.1,-80.182 29.191,-76.867 29.285,-73.515L29.287,-73.435C30.053,-45.913 30.921,-14.719 24.202,10.842C17.014,38.193 2.043,55.406 -21.487,63.347L-20.454,64.422C-4.297,58.834 7.851,48.915 16.238,34.382M52.692,-131.349L54.291,-131.349C57.823,-136.77 62,-141.922 66.83,-146.789C69.292,-149.269 71.886,-151.62 74.579,-153.856L74.579,-155.597C71.543,-153.126 68.629,-150.511 65.875,-147.736C60.761,-142.583 56.372,-137.114 52.692,-131.349M-4.697,-187.387C-10.517,-181.417 -15.396,-175.038 -19.308,-168.261C-27.635,-153.836 -31.624,-137.627 -31.199,-119.828C-31.122,-116.621 -31.031,-113.367 -30.94,-110.077L-30.934,-109.825C-30.51,-94.601 -30.058,-78.263 -30.865,-62.328L-29.519,-62.328C-28.713,-78.289 -29.165,-94.632 -29.589,-109.862L-29.596,-110.114C-29.687,-113.402 -29.777,-116.655 -29.854,-119.861C-30.459,-145.184 -21.997,-167.241 -4.697,-185.46L-4.697,-187.387ZM36.612,-135.982C35.732,-134.459 34.913,-132.911 34.131,-131.349L35.637,-131.349C39.941,-139.783 45.679,-147.634 52.851,-154.859C57.219,-159.26 61.984,-163.272 67.026,-166.907L64.775,-166.907C60.217,-163.519 55.888,-159.829 51.896,-155.807C45.773,-149.638 40.676,-143.022 36.612,-135.982M43.602,-131.947C43.488,-131.749 43.383,-131.547 43.271,-131.349L44.822,-131.349C48.821,-138.263 53.826,-144.764 59.84,-150.824C64.369,-155.387 69.33,-159.525 74.579,-163.266L74.579,-164.904C68.979,-160.978 63.691,-156.613 58.886,-151.771C52.764,-145.603 47.666,-138.988 43.602,-131.947M72.732,-166.907C66.965,-162.829 61.677,-158.403 56.976,-153.666C50.124,-146.763 44.526,-139.312 40.182,-131.349L41.716,-131.349C45.95,-138.962 51.356,-146.096 57.931,-152.719C62.868,-157.694 68.453,-162.331 74.579,-166.569L74.579,-166.907L72.732,-166.907ZM39.519,47.893C43.501,40.993 46.717,32.945 49.075,23.973C55.941,-2.148 55.064,-33.65 54.291,-61.443L54.284,-61.695C54.192,-64.983 54.103,-68.235 54.025,-71.441C53.699,-85.105 56.018,-97.817 60.935,-109.49L59.479,-109.49C54.639,-97.789 52.354,-85.069 52.681,-71.409C52.758,-68.202 52.848,-64.948 52.939,-61.658L52.946,-61.406C53.717,-33.703 54.591,-2.303 47.774,23.631C45.446,32.487 42.276,40.423 38.354,47.22C29.072,63.3 15.438,73.746 -3.312,79.148L1.171,79.148C18.171,73.345 30.748,63.088 39.519,47.893M63.972,-63.275C64.049,-60.007 64.142,-56.692 64.235,-53.339L64.237,-53.261C65.003,-25.739 65.871,5.456 59.151,31.017C53.079,54.121 41.452,69.989 23.807,79.148L26.653,79.148C36.907,73.343 45.054,65.185 51.188,54.557C55.074,47.824 58.156,40.098 60.453,31.359C67.221,5.611 66.35,-25.686 65.582,-53.298L65.579,-53.377C65.486,-56.727 65.394,-60.041 65.316,-63.307C64.935,-79.237 68.041,-93.911 74.579,-107.194L74.579,-109.49L74.232,-109.49C67.013,-95.571 63.568,-80.116 63.972,-63.275M73.65,-59.303C73.728,-56.097 73.818,-52.842 73.909,-49.552L73.916,-49.3C74.688,-21.597 75.562,9.801 68.744,35.736C66.416,44.592 63.246,52.529 59.323,59.326C54.725,67.293 49.055,73.875 42.227,79.148L44.397,79.148C50.763,73.958 56.103,67.596 60.488,59.998C64.471,53.097 67.687,45.049 70.045,36.078C72.3,27.499 73.716,18.338 74.579,8.92L74.579,-75.749C73.828,-70.431 73.516,-64.948 73.65,-59.303M-4.697,-39.184L-4.697,-122.352C-5.666,-116.317 -6.083,-110.074 -5.929,-103.624C-5.851,-100.357 -5.758,-97.041 -5.665,-93.689L-5.663,-93.61C-4.896,-66.088 -4.028,-34.894 -10.748,-9.332C-11.521,-6.389 -12.39,-3.57 -13.345,-0.86C-12.973,-0.532 -12.616,-0.19 -12.277,0.167C-11.229,-2.752 -10.285,-5.802 -9.447,-8.991C-6.958,-18.457 -5.505,-28.675 -4.697,-39.184ZM16.871,-37.475C17.351,-49.495 17.168,-61.695 16.871,-73.414L16.871,-37.475ZM-57.556,-126.254C-57.646,-129.542 -57.737,-132.795 -57.813,-136C-58.438,-162.107 -49.426,-184.743 -31.029,-203.278C-28.513,-205.814 -25.86,-208.217 -23.103,-210.497L-25.18,-210.497C-27.532,-208.497 -29.812,-206.414 -31.984,-204.226C-38.106,-198.057 -43.204,-191.442 -47.268,-184.401C-55.595,-169.976 -59.584,-153.766 -59.158,-135.968C-59.082,-132.761 -58.991,-129.507 -58.9,-126.217L-58.894,-125.965C-58.324,-105.537 -57.704,-83.102 -60.148,-62.328L-58.794,-62.328C-56.359,-83.151 -56.979,-105.577 -57.548,-126.002L-57.556,-126.254ZM-50.565,-122.219C-50.657,-125.507 -50.747,-128.76 -50.823,-131.965C-51.447,-158.071 -42.436,-180.707 -24.039,-199.244C-19.983,-203.33 -15.578,-207.071 -10.934,-210.497L-13.179,-210.497C-17.347,-207.328 -21.312,-203.9 -24.994,-200.191C-31.116,-194.022 -36.214,-187.407 -40.277,-180.366C-48.604,-165.941 -52.594,-149.732 -52.169,-131.933C-52.092,-128.726 -52.001,-125.472 -51.91,-122.182L-51.903,-121.93C-51.371,-102.819 -50.792,-81.949 -52.721,-62.328L-51.367,-62.328C-49.446,-81.991 -50.026,-102.856 -50.559,-121.967L-50.565,-122.219ZM-34.702,-210.497L-36.676,-210.497C-37.451,-209.761 -38.221,-209.019 -38.974,-208.261C-45.097,-202.092 -50.193,-195.476 -54.258,-188.436C-57.567,-182.702 -60.181,-176.682 -62.114,-170.397L-62.114,-165.395C-58.225,-181.035 -50.171,-195.069 -38.02,-207.313C-36.939,-208.401 -35.828,-209.456 -34.702,-210.497M29.621,-140.016C27.993,-137.196 26.536,-134.305 25.24,-131.349L26.718,-131.349C31.174,-141.326 37.559,-150.529 45.86,-158.894C48.673,-161.728 51.657,-164.392 54.767,-166.907L52.646,-166.907C49.957,-164.67 47.366,-162.32 44.905,-159.841C38.783,-153.673 33.686,-147.057 29.621,-140.016M22.632,-144.051C20.271,-139.961 18.271,-135.722 16.608,-131.349L18.046,-131.349C22.512,-142.891 29.46,-153.447 38.87,-162.929C40.228,-164.296 41.634,-165.615 43.063,-166.907L41.063,-166.907C39.995,-165.916 38.941,-164.91 37.916,-163.876C31.793,-157.707 26.696,-151.092 22.632,-144.051M-43.568,-117.932L-43.575,-118.184C-43.667,-121.472 -43.757,-124.725 -43.834,-127.931C-44.458,-154.036 -35.447,-176.67 -17.05,-195.208C-13.214,-199.073 -9.063,-202.627 -4.697,-205.9L-4.697,-207.577C-9.413,-204.102 -13.887,-200.305 -18.004,-196.156C-24.126,-189.988 -29.224,-183.372 -33.288,-176.331C-41.614,-161.906 -45.604,-145.697 -45.179,-127.898C-45.102,-124.691 -45.012,-121.437 -44.92,-118.147L-44.913,-117.894C-44.418,-100.088 -43.883,-80.756 -45.372,-62.328L-44.022,-62.328C-42.538,-80.791 -43.073,-100.122 -43.568,-117.932M-46.26,-117.936C-46.354,-121.286 -46.445,-124.6 -46.523,-127.866C-47.166,-154.732 -37.894,-178.027 -18.959,-197.103C-14.672,-201.423 -9.89,-205.482 -4.697,-209.253L-4.697,-210.497L-5.269,-210.497C-10.604,-206.64 -15.517,-202.481 -19.914,-198.051C-39.114,-178.706 -48.52,-155.081 -47.868,-127.834C-47.79,-124.567 -47.698,-121.251 -47.604,-117.899L-47.603,-117.82C-47.107,-100.019 -46.571,-80.683 -48.071,-62.328L-46.722,-62.328C-45.228,-80.72 -45.762,-100.054 -46.258,-117.858L-46.26,-117.936ZM-4.697,-196.213L-4.697,-197.978C-6.876,-196.104 -8.991,-194.159 -11.015,-192.121C-17.136,-185.953 -22.233,-179.337 -26.298,-172.296C-34.625,-157.871 -38.614,-141.662 -38.188,-123.863C-38.112,-120.656 -38.021,-117.402 -37.931,-114.112L-37.923,-113.86C-37.464,-97.349 -36.969,-79.525 -38.086,-62.328L-36.737,-62.328C-35.623,-79.556 -36.119,-97.381 -36.578,-113.897L-36.585,-114.149C-36.677,-117.437 -36.768,-120.69 -36.844,-123.895C-37.468,-150.002 -28.456,-172.638 -10.06,-191.173C-8.332,-192.914 -6.541,-194.593 -4.697,-196.213M46.508,51.928C50.491,45.028 53.706,36.98 56.065,28.007C62.931,1.887 62.055,-29.615 61.281,-57.408L61.273,-57.66C61.183,-60.948 61.092,-64.201 61.016,-67.406C60.65,-82.661 63.582,-96.73 69.749,-109.49L68.259,-109.49C62.192,-96.698 59.307,-82.621 59.671,-67.373C59.748,-64.166 59.838,-60.912 59.93,-57.622L59.937,-57.37C60.707,-29.667 61.581,1.731 54.764,27.666C52.436,36.522 49.267,44.459 45.344,51.255C37.995,63.987 27.917,73.186 14.731,79.148L17.864,79.148C30.053,73.064 39.497,64.075 46.508,51.928M66.661,-63.338C66.737,-60.131 66.828,-56.877 66.919,-53.587L66.926,-53.335C67.697,-25.632 68.571,5.766 61.754,31.701C59.426,40.557 56.257,48.494 52.333,55.291C46.478,65.436 38.889,73.338 29.376,79.148L31.895,79.148C40.752,73.346 47.9,65.661 53.498,55.963C57.481,49.063 60.696,41.015 63.055,32.043C69.921,5.922 69.045,-25.579 68.271,-53.373L68.264,-53.625C68.173,-56.912 68.082,-60.165 68.006,-63.371C67.687,-76.72 69.893,-89.158 74.579,-100.608L74.579,-104.015C68.969,-91.609 66.31,-78.016 66.661,-63.338M70.961,-59.24C71.039,-55.972 71.131,-52.657 71.225,-49.305L71.227,-49.226C71.993,-21.703 72.861,9.491 66.142,35.052C60.882,55.066 51.454,69.65 37.558,79.148L39.919,79.148C47.281,73.787 53.353,66.954 58.178,58.592C62.064,51.859 65.146,44.132 67.442,35.394C74.211,9.646 73.34,-21.651 72.572,-49.263L72.569,-49.342C72.477,-52.693 72.384,-56.006 72.306,-59.272C72.106,-67.629 72.867,-75.641 74.579,-83.287L74.579,-88.743C71.927,-79.457 70.713,-69.612 70.961,-59.24M44.198,50.523C48.085,43.79 51.166,36.063 53.463,27.324C60.231,1.576 59.36,-29.72 58.592,-57.333L58.59,-57.411C58.496,-60.762 58.404,-64.077 58.326,-67.342C57.961,-82.579 60.79,-96.667 66.76,-109.49L65.272,-109.49C59.397,-96.637 56.616,-82.539 56.981,-67.31C57.06,-64.042 57.151,-60.727 57.245,-57.374L57.247,-57.295C58.013,-29.774 58.881,1.421 52.162,26.982C45.075,53.946 30.429,71.06 7.471,79.148L11.286,79.148C25.572,73.369 36.478,63.899 44.198,50.523M64.858,79.148L66.652,79.148C69.534,75.797 72.137,72.108 74.468,68.068C74.506,68.003 74.541,67.933 74.579,67.868L74.579,65.084C74.162,65.867 73.739,66.64 73.303,67.395C70.809,71.717 67.996,75.629 64.858,79.148M73.439,79.148C73.825,78.659 74.205,78.164 74.579,77.661L74.579,75.335C73.653,76.651 72.689,77.922 71.688,79.148L73.439,79.148ZM49.823,79.148L51.897,79.148C57.063,74.516 61.479,69.019 65.168,62.628C69.055,55.894 72.136,48.168 74.433,39.429C74.483,39.237 74.529,39.043 74.579,38.849L74.579,32.934C74.14,35.016 73.662,37.071 73.132,39.088C68.566,56.456 60.861,69.732 49.823,79.148M53.949,79.148L55.894,79.148C60.318,74.795 64.169,69.765 67.479,64.033C70.223,59.279 72.593,53.968 74.579,48.197L74.579,43.831C72.394,51.062 69.626,57.622 66.313,63.36C62.821,69.41 58.714,74.662 53.949,79.148M62.991,79.148C66.433,75.447 69.487,71.29 72.158,66.663C73.006,65.194 73.808,63.67 74.579,62.107L74.579,58.952C71.018,66.823 66.537,73.545 61.109,79.148L62.991,79.148ZM-24.752,36.399C-28.878,39.997 -33.469,43.06 -38.548,45.607L-37.569,46.625C-31.024,43.297 -25.281,39.117 -20.287,34.05C-21.749,35.018 -23.248,35.789 -24.752,36.399M9.248,30.348C9.444,30.007 9.63,29.654 9.822,29.308L8.273,29.308C0.335,43.217 -11.067,52.864 -26.159,58.489L-25.139,59.55C-10.126,53.835 1.265,44.181 9.248,30.348M11.559,31.754C12.02,30.955 12.468,30.137 12.907,29.308L11.371,29.308C11.049,29.904 10.728,30.502 10.394,31.081C2.336,45.041 -9.004,54.753 -24.123,60.606L-23.112,61.657C-7.961,55.672 3.433,45.832 11.559,31.754M-4.697,27.376L-4.697,24.868C-11.84,36.478 -21.396,44.998 -33.682,50.667L-32.696,51.692C-21.011,46.215 -11.766,38.176 -4.697,27.376M3.625,29.308L2.04,29.308C-5.496,41.385 -15.68,50.081 -28.874,55.667L-27.874,56.706C-14.391,50.895 -4.017,41.859 3.625,29.308M-31.546,38.245C-34.352,40.225 -37.344,41.993 -40.524,43.551L-39.539,44.576C-35.521,42.58 -31.804,40.254 -28.379,37.589C-29.45,37.866 -30.51,38.08 -31.546,38.245M-40.603,38.845C-41.538,39.415 -42.492,39.964 -43.465,40.494L-42.497,41.5C-40.953,40.65 -39.457,39.75 -38.005,38.798C-38.879,38.825 -39.745,38.839 -40.603,38.845M-4.731,22.278C-4.72,22.257 -4.709,22.236 -4.697,22.215L-4.697,19.411C-11.895,32.863 -22.158,42.524 -35.678,48.591L-34.68,49.63C-21.839,43.773 -11.909,34.714 -4.731,22.278M0.433,29.308L-1.195,29.308C-8.529,40.407 -18.382,48.445 -30.889,53.571L-29.883,54.617C-17.058,49.262 -6.999,40.881 0.433,29.308M-9.198,19.261C-7.562,16.39 -6.063,13.318 -4.697,10.072L-4.697,6.454C-5.622,8.882 -6.613,11.227 -7.683,13.463C-7.802,14.731 -8.062,16.001 -8.477,17.253C-8.706,17.947 -8.949,18.611 -9.198,19.261M-4.697,-1.953C-5.705,1.457 -6.84,4.701 -8.107,7.779C-7.907,8.588 -7.769,9.415 -7.688,10.25C-6.602,7.775 -5.61,5.179 -4.697,2.485L-4.697,-1.953ZM-4.697,-17.925C-5.312,-14.653 -6.021,-11.441 -6.845,-8.307C-7.851,-4.48 -9.021,-0.833 -10.332,2.64C-10.624,2.188 -10.936,1.749 -11.271,1.325C-10.104,-1.851 -9.059,-5.176 -8.146,-8.649C-6.656,-14.316 -5.533,-20.244 -4.697,-26.337L-4.697,-17.925Z" style="fill:rgb(75,183,175);fill-rule:nonzero;"/>
                    </g>
                </g>
            </g>
        </g>
    </g>
</svg>
